<svg width="60" height="50" viewBox="0 0 60 50" fill="none" xmlns="http://www.w3.org/2000/svg">
<ellipse cx="30" cy="25" rx="30" ry="25" fill="#63827B"/>
<path fill-rule="evenodd" clip-rule="evenodd" d="M38.7294 5.45082C38.2095 5.85914 38.1736 5.98037 38.261 7.03271L38.3557 8.17229L36.0087 10.7371C34.7179 12.1478 33.5879 13.3294 33.4976 13.3629C33.4076 13.3963 32.7794 13.0662 32.1022 12.629C30.5912 11.6539 28.2235 10.8518 25.8976 10.527C22.7194 10.0833 18.8047 11.0064 16.0479 12.8496C13.0711 14.8396 11.2124 17.379 10.299 20.7031C9.73109 22.7701 9.8242 26.3545 10.4942 28.2147L10.9239 29.4077L9.54528 30.0235C8.78708 30.362 7.68228 30.8569 7.09 31.1229C6.07011 31.5812 5.67491 32.0389 6.29919 32.0389C6.45649 32.0389 7.61112 31.5861 8.86501 31.0326L11.145 30.0261L11.7887 30.9814C12.1429 31.5067 12.8917 32.4724 13.4528 33.1273L14.4731 34.318L13.8867 34.9702C13.5641 35.329 12.9339 36.0138 12.4862 36.4919C11.8455 37.1759 11.7253 37.4146 11.922 37.611C12.1189 37.8076 12.4887 37.5248 13.656 36.2847L15.1396 34.7085L16.455 35.5217C18.7225 36.9234 21.6954 37.781 24.2327 37.7654C25.8871 37.7552 28.2854 37.2904 29.768 36.6924C30.8244 36.2665 31.1709 36.212 31.8063 36.373C32.2273 36.4794 34.0946 36.6168 35.9558 36.6781C39.7448 36.8028 42.3352 36.4971 44.8307 35.6304C46.1697 35.1656 46.287 35.1566 47.0981 35.4562C48.9841 36.1532 53.6381 35.7361 54.416 34.8005C54.8618 34.264 54.4896 34.2333 53.2484 34.704C51.5288 35.3562 47.4406 35.3718 47.4406 34.7262C47.4406 34.6318 47.9792 34.2224 48.6375 33.8167C49.95 33.0079 51.4408 31.5132 51.7531 30.6929C52.2462 29.3977 51.7775 27.9774 50.6672 27.4017C49.7991 26.9518 48.4951 26.9629 47.7078 27.4273L47.0784 27.7986L46.456 27.1032C45.869 26.4473 45.7575 26.4076 44.5003 26.4076C43.3754 26.4076 43.085 26.4843 42.6436 26.8984C41.9515 27.5475 41.6207 28.6062 41.7866 29.6412C41.99 30.9118 43.0854 32.7765 44.2337 33.8073C45.4525 34.9016 45.4521 34.9023 42.8262 35.5623C41.2173 35.9665 40.4539 36.0265 36.8787 36.0289C34.3149 36.0308 32.6375 35.9495 32.4052 35.8119C32.0688 35.6128 32.1082 35.5408 32.8153 35.061C35.2265 33.4244 37.1082 30.8385 38.1432 27.7386C38.7076 26.0488 38.6492 21.7444 38.0393 20.0786C37.7958 19.4134 37.5965 18.8034 37.5965 18.7229C37.5965 18.6425 39.0153 17.9575 40.7495 17.2006C43.8553 15.8452 43.9121 15.8295 44.5335 16.1501C45.4777 16.6379 46.1602 16.5572 46.8411 15.8774C47.942 14.7779 47.361 13.1148 45.7886 12.8651C44.7823 12.7052 43.7491 13.5431 43.7491 14.5189C43.7491 15.1852 43.7378 15.1926 40.6215 16.5505C38.9014 17.3 37.4017 17.9116 37.2889 17.9098C37.1761 17.9077 36.861 17.5168 36.5887 17.0409C36.3163 16.565 35.6471 15.7043 35.1018 15.1285C34.5563 14.5527 34.11 14.0139 34.11 13.9312C34.11 13.8485 35.1943 12.5922 36.5198 11.1391L38.9295 8.49706L39.9129 8.49338C41.1736 8.48867 41.9033 7.84895 41.9033 6.74869C41.9033 5.22311 40.0067 4.44763 38.7294 5.45082ZM27.9962 12.0251C32.7214 15.0501 35.2427 20.2678 34.554 25.5958C34.4277 26.5724 34.1744 27.9051 33.9911 28.5575C33.6258 29.8574 33.4027 29.9911 31.6002 29.9911C30.8203 29.9911 30.7868 29.9649 30.882 29.428C30.9367 29.1184 31.1427 27.9894 31.3393 26.9195C31.7626 24.6156 31.6656 21.1243 31.1287 19.3428C30.3129 16.6367 28.2805 13.8132 25.8836 12.0565C25.3324 11.6522 24.8812 11.2511 24.8812 11.1649C24.8812 10.7963 26.9835 11.3768 27.9962 12.0251ZM24.0366 11.5982C26.3141 12.9679 28.5756 15.2665 29.5411 17.1927C30.6158 19.3362 30.9255 20.756 30.9255 23.5407C30.9257 25.4603 30.8184 26.6312 30.5413 27.7386C29.9677 30.0319 30.0395 29.9602 28.424 29.8494C26.4329 29.713 26.4909 29.7761 27.0604 28.3681C28.9901 23.5978 27.6543 18.0832 23.3176 12.9163C22.5984 12.0595 22.01 11.3119 22.01 11.255C22.01 10.973 23.3843 11.2056 24.0366 11.5982ZM22.2971 13.0281C22.2387 13.1223 22.0672 13.1995 21.9163 13.1995C21.3412 13.1995 17.9565 15.0685 16.7399 16.058C15.2785 17.2461 13.8223 18.9595 12.9247 20.5471L12.3016 21.6488L11.7266 20.9566C11.4103 20.5757 11.1501 20.1721 11.1486 20.0595C11.147 19.9469 11.4177 19.3192 11.7502 18.6648C13.4042 15.408 16.0924 13.0464 19.4991 11.8572L20.882 11.3744L21.6427 12.1154C22.0608 12.523 22.3553 12.9337 22.2971 13.0281ZM31.9472 13.3519C36.8701 16.5183 39.0957 22.3862 37.4039 27.7386C36.8198 29.5859 36.7731 29.6336 35.4291 29.7448C34.3381 29.8351 34.2608 29.8136 34.399 29.456C34.9492 28.032 35.2085 26.1913 35.2031 23.7455C35.198 21.4534 35.1244 20.862 34.6736 19.4906C33.9494 17.2883 32.7066 15.2936 30.9909 13.5804C29.3391 11.9311 29.6303 11.8615 31.9472 13.3519ZM23.8984 14.7368C24.325 15.2991 24.6745 15.8114 24.6751 15.8751C24.6757 15.9388 24.1542 16.2071 23.5161 16.471C21.8763 17.1499 19.5947 18.7246 18.0937 20.2139C16.8919 21.4065 15.1933 23.5243 14.9749 24.1026C14.9142 24.2633 14.4825 23.9728 13.824 23.3281L12.7705 22.2965L13.4292 20.9732C14.2243 19.3766 17.2032 16.3187 18.9755 15.2801C20.4085 14.4403 22.4181 13.596 22.8227 13.6638C22.9878 13.6916 23.4718 14.1743 23.8984 14.7368ZM25.7614 17.8115C26.0668 18.4334 26.3168 19.0309 26.3168 19.139C26.3168 19.2474 25.8322 19.5791 25.2401 19.8764C23.0807 20.9607 20.0742 23.5198 18.5892 25.5373C18.1956 26.0723 17.7803 26.5099 17.6667 26.5099C17.3664 26.5099 15.4663 25.0116 15.4561 24.7667C15.4374 24.3229 17.0192 22.242 18.4542 20.8231C20.4327 18.8665 23.801 16.7008 24.8898 16.6852C25.0715 16.6826 25.4419 17.1611 25.7614 17.8115ZM26.8892 20.8274C27.0053 21.3062 27.1556 22.0663 27.2233 22.5168L27.3465 23.3359L25.6523 24.1321C24.3106 24.7628 23.6226 25.2633 22.3441 26.5382C21.4562 27.4237 20.6449 28.1481 20.5414 28.1481C20.2415 28.1481 18.77 27.3571 18.6205 27.1155C18.3031 26.6025 20.8404 23.7002 23.0545 22.0436C24.1293 21.2392 26.2602 19.969 26.5487 19.9608C26.6199 19.9588 26.7731 20.3487 26.8892 20.8274ZM12.2422 22.6221C14.2862 25.1031 17.1626 27.3444 19.9007 28.5898C23.0598 30.0268 28.2442 30.764 33.3389 30.5006C34.891 30.4203 36.1609 30.4218 36.1609 30.5039C36.1609 30.5858 35.8323 31.1 35.4308 31.6461C34.5153 32.8912 34.2058 32.9643 29.9058 32.9481C25.4017 32.9313 21.0711 32.1061 18.4224 30.7597C16.0075 29.5322 11.9054 26.1319 10.921 24.5414C10.5381 23.923 10.4983 23.6525 10.6212 22.507C10.6991 21.7802 10.8295 21.1858 10.9107 21.1858C10.9922 21.1858 11.5912 21.832 12.2422 22.6221ZM27.2253 25.2301C27.018 26.65 26.3683 28.6537 25.9462 29.1741L25.5797 29.626L23.655 29.1429C22.5963 28.8774 21.6919 28.5415 21.6453 28.3967C21.424 27.7083 25.8619 24.2795 26.9958 24.2629C27.3227 24.258 27.3502 24.3745 27.2253 25.2301ZM12.4842 27.2432C14.5496 29.2269 17.2024 30.9972 19.3471 31.823C22.5418 33.0531 27.3078 33.7848 31.1654 33.6374L33.5141 33.5477L32.9404 34.1059C31.6478 35.3638 31.0013 35.5352 27.9575 35.4283C21.003 35.1838 17.5364 33.9326 12.9044 29.9952C11.6534 28.9318 11.2916 28.4911 11.0572 27.7449C10.6829 26.5538 10.5432 25.6908 10.7247 25.6908C10.8033 25.6908 11.5949 26.3895 12.4842 27.2432ZM45.8495 27.4826C46.1445 27.7922 46.4486 28.2993 46.5253 28.6089C46.7064 29.3404 47.0575 29.3234 47.5085 28.561C48.1693 27.4441 49.9385 27.3927 50.8758 28.4631C51.7599 29.4728 51.3873 30.5715 49.611 32.1925C48.3883 33.3083 46.7909 34.2914 46.2009 34.2914C45.5819 34.2914 43.6067 32.31 43.0083 31.0889C42.2316 29.5036 42.2347 28.3642 43.0183 27.5473C43.8424 26.6883 45.0661 26.6605 45.8495 27.4826ZM14.2545 31.939C17.2151 34.1661 20.0047 35.192 24.8533 35.8364C26.053 35.996 27.496 36.1309 28.06 36.1366C29.4351 36.1504 28.9039 36.4577 26.779 36.8777C23.768 37.4728 20.4546 36.9338 17.3956 35.3513C15.5982 34.4214 11.8363 30.8102 12.665 30.8102C12.7141 30.8102 13.4292 31.3181 14.2545 31.939Z" fill="white"/>
<path d="M58.5 25C58.5 37.8943 45.8328 48.5 30 48.5C14.1672 48.5 1.5 37.8943 1.5 25C1.5 12.1057 14.1672 1.5 30 1.5C45.8328 1.5 58.5 12.1057 58.5 25Z" stroke="white"/>
</svg>
