<svg width="20" height="21" viewBox="0 0 20 21" fill="none" xmlns="http://www.w3.org/2000/svg">
<path d="M18.9994 14.9765V17.6862C19.0005 17.9377 18.9488 18.1867 18.8479 18.4172C18.7469 18.6477 18.5988 18.8546 18.413 19.0247C18.2273 19.1947 18.008 19.3242 17.7693 19.4048C17.5305 19.4854 17.2775 19.5153 17.0265 19.4927C14.2415 19.1907 11.5664 18.2409 9.21601 16.7197C7.02929 15.3329 5.17534 13.4827 3.7858 11.3003C2.25627 8.94389 1.30442 6.26107 1.00735 3.46915C0.98473 3.21938 1.01447 2.96764 1.09468 2.72996C1.17489 2.49229 1.30381 2.27389 1.47323 2.08866C1.64265 1.90343 1.84885 1.75544 2.07872 1.65411C2.30858 1.55278 2.55707 1.50032 2.80837 1.50009H5.52347C5.96269 1.49577 6.3885 1.651 6.72152 1.93683C7.05455 2.22267 7.27207 2.61961 7.33354 3.05366C7.44814 3.92084 7.66067 4.77229 7.96707 5.59177C8.08883 5.91507 8.11519 6.26642 8.043 6.6042C7.97082 6.94198 7.80313 7.25203 7.5598 7.49761L6.41041 8.64473C7.69877 10.906 9.57482 12.7784 11.8406 14.0642L12.99 12.9171C13.2361 12.6742 13.5467 12.5069 13.8852 12.4348C14.2236 12.3628 14.5757 12.3891 14.8996 12.5106C15.7207 12.8164 16.5739 13.0285 17.4428 13.1429C17.8824 13.2048 18.2839 13.4258 18.5709 13.7639C18.858 14.1019 19.0105 14.5335 18.9994 14.9765Z" stroke="white" stroke-width="2" stroke-linecap="round" stroke-linejoin="round"/>
</svg>
