<svg width="50" height="50" viewBox="0 0 50 50" fill="none" xmlns="http://www.w3.org/2000/svg">
<path d="M49.5 25C49.5 11.469 38.531 0.5 25 0.5C11.469 0.5 0.5 11.469 0.5 25C0.5 38.531 11.469 49.5 25 49.5C38.531 49.5 49.5 38.531 49.5 25Z" fill="white"/>
<path fill-rule="evenodd" clip-rule="evenodd" d="M36.9895 25.2786C36.9895 24.41 36.9116 23.5748 36.7668 22.7729H25.2295V27.5115H31.8222C31.5383 29.0427 30.6752 30.3401 29.3778 31.2088V34.2824H33.3368C35.6532 32.1498 36.9895 29.0093 36.9895 25.2786Z" fill="#4285F4"/>
<path fill-rule="evenodd" clip-rule="evenodd" d="M25.2291 37.2502C28.5366 37.2502 31.3095 36.1532 33.3363 34.2823L29.3774 31.2087C28.2804 31.9437 26.8772 32.378 25.2291 32.378C22.0385 32.378 19.3379 30.2231 18.3746 27.3276H14.282V30.5015C16.2977 34.505 20.4404 37.2502 25.2291 37.2502Z" fill="#34A853"/>
<path fill-rule="evenodd" clip-rule="evenodd" d="M18.3751 27.3269C18.1301 26.5919 17.9909 25.8068 17.9909 24.9994C17.9909 24.192 18.1301 23.4069 18.3751 22.6719V19.498H14.2824C13.4528 21.1518 12.9795 23.0227 12.9795 24.9994C12.9795 26.9761 13.4528 28.847 14.2824 30.5008L18.3751 27.3269Z" fill="#FBBC05"/>
<path fill-rule="evenodd" clip-rule="evenodd" d="M25.2291 17.6222C27.0276 17.6222 28.6424 18.2402 29.9119 19.4541L33.4254 15.9406C31.304 13.9639 28.531 12.75 25.2291 12.75C20.4404 12.75 16.2977 15.4951 14.282 19.4987L18.3746 22.6725C19.3379 19.7771 22.0385 17.6222 25.2291 17.6222Z" fill="#EA4335"/>
</svg>
