<svg width="50" height="50" viewBox="0 0 50 50" fill="none" xmlns="http://www.w3.org/2000/svg">
<rect x="0.5" y="0.5" width="49" height="49" rx="24.5" fill="url(#paint0_radial_825_5426)"/>
<path d="M25 14.9639C28.247 14.9639 28.6898 14.9639 30.0181 14.9639C31.1988 14.9639 31.7892 15.259 32.2319 15.4066C32.8223 15.7018 33.2651 15.8494 33.7078 16.2922C34.1506 16.7349 34.4458 17.1777 34.5934 17.7681C34.741 18.2108 34.8886 18.8012 35.0361 19.9819C35.0361 21.3102 35.0361 21.6054 35.0361 25C35.0361 28.3946 35.0361 28.6898 35.0361 30.0181C35.0361 31.1988 34.741 31.7892 34.5934 32.2319C34.2982 32.8223 34.1506 33.2651 33.7078 33.7078C33.2651 34.1506 32.8223 34.4458 32.2319 34.5934C31.7892 34.741 31.1988 34.8886 30.0181 35.0361C28.6898 35.0361 28.3946 35.0361 25 35.0361C21.6054 35.0361 21.3102 35.0361 19.9819 35.0361C18.8012 35.0361 18.2108 34.741 17.7681 34.5934C17.1777 34.2982 16.7349 34.1506 16.2922 33.7078C15.8494 33.2651 15.5542 32.8223 15.4066 32.2319C15.259 31.7892 15.1114 31.1988 14.9639 30.0181C14.9639 28.6898 14.9639 28.3946 14.9639 25C14.9639 21.6054 14.9639 21.3102 14.9639 19.9819C14.9639 18.8012 15.259 18.2108 15.4066 17.7681C15.7018 17.1777 15.8494 16.7349 16.2922 16.2922C16.7349 15.8494 17.1777 15.5542 17.7681 15.4066C18.2108 15.259 18.8012 15.1114 19.9819 14.9639C21.3102 14.9639 21.753 14.9639 25 14.9639ZM25 12.75C21.6054 12.75 21.3102 12.75 19.9819 12.75C18.6536 12.75 17.7681 13.0452 17.0301 13.3404C16.2922 13.6355 15.5542 14.0783 14.8163 14.8163C14.0783 15.5542 13.7831 16.1446 13.3404 17.0301C13.0452 17.7681 12.8976 18.6536 12.75 19.9819C12.75 21.3102 12.75 21.753 12.75 25C12.75 28.3946 12.75 28.6898 12.75 30.0181C12.75 31.3464 13.0452 32.2319 13.3404 32.9699C13.6355 33.7078 14.0783 34.4458 14.8163 35.1837C15.5542 35.9217 16.1446 36.2169 17.0301 36.6596C17.7681 36.9548 18.6536 37.1024 19.9819 37.25C21.3102 37.25 21.753 37.25 25 37.25C28.247 37.25 28.6898 37.25 30.0181 37.25C31.3464 37.25 32.2319 36.9548 32.9699 36.6596C33.7078 36.3645 34.4458 35.9217 35.1837 35.1837C35.9217 34.4458 36.2169 33.8554 36.6596 32.9699C36.9548 32.2319 37.1024 31.3464 37.25 30.0181C37.25 28.6898 37.25 28.247 37.25 25C37.25 21.753 37.25 21.3102 37.25 19.9819C37.25 18.6536 36.9548 17.7681 36.6596 17.0301C36.3645 16.2922 35.9217 15.5542 35.1837 14.8163C34.4458 14.0783 33.8554 13.7831 32.9699 13.3404C32.2319 13.0452 31.3464 12.8976 30.0181 12.75C28.6898 12.75 28.3946 12.75 25 12.75Z" fill="white"/>
<path d="M25 18.6536C21.4578 18.6536 18.6536 21.4578 18.6536 25C18.6536 28.5422 21.4578 31.3464 25 31.3464C28.5422 31.3464 31.3464 28.5422 31.3464 25C31.3464 21.4578 28.5422 18.6536 25 18.6536ZM25 29.1325C22.7861 29.1325 20.8675 27.3614 20.8675 25C20.8675 22.7861 22.6386 20.8675 25 20.8675C27.2139 20.8675 29.1325 22.6386 29.1325 25C29.1325 27.2139 27.2139 29.1325 25 29.1325Z" fill="white"/>
<path d="M31.494 19.9819C32.3091 19.9819 32.9699 19.3211 32.9699 18.506C32.9699 17.6909 32.3091 17.0301 31.494 17.0301C30.6789 17.0301 30.0181 17.6909 30.0181 18.506C30.0181 19.3211 30.6789 19.9819 31.494 19.9819Z" fill="white"/>
<defs>
<radialGradient id="paint0_radial_825_5426" cx="0" cy="0" r="1" gradientUnits="userSpaceOnUse" gradientTransform="translate(50.4857 1.49531) scale(113.156)">
<stop stop-color="#F9ED32"/>
<stop offset="0.36" stop-color="#EE2A7B"/>
<stop offset="0.44" stop-color="#D22A8A"/>
<stop offset="0.6" stop-color="#8B2AB2"/>
<stop offset="0.83" stop-color="#1B2AF0"/>
<stop offset="0.88" stop-color="#002AFF"/>
</radialGradient>
</defs>
</svg>
