<svg width="60" height="50" viewBox="0 0 60 50" fill="none" xmlns="http://www.w3.org/2000/svg">
<ellipse cx="30" cy="25" rx="30" ry="25" fill="#63827B"/>
<path d="M58.5 25C58.5 37.8943 45.8328 48.5 30 48.5C14.1672 48.5 1.5 37.8943 1.5 25C1.5 12.1057 14.1672 1.5 30 1.5C45.8328 1.5 58.5 12.1057 58.5 25Z" stroke="white"/>
<path d="M13.9377 29.6643L7.09067 33.8886C7.09067 33.8886 6.94818 34.6093 7.09067 35.0327C7.18805 35.3221 7.27082 35.4949 7.49551 35.7016C7.79804 35.98 8.48119 36.0712 8.48119 36.0712L15.1698 32.1285M13.9377 29.6643C13.9377 29.6643 13.7921 29.1052 13.6912 28.749C13.4496 27.8956 13.1831 27.4528 13.0048 26.584C12.794 25.5573 12.7846 24.9566 12.7936 23.9086C12.8017 22.9633 12.8308 22.4263 13.0048 21.4972C13.2252 20.3198 13.4911 19.6867 13.9377 18.5753C14.2656 17.7592 14.4526 17.2976 14.8882 16.5335C15.5949 15.2938 16.111 14.6523 17.1059 13.6293C18.0872 12.6204 18.6887 12.0675 19.9046 11.3587C20.9534 10.7473 21.6098 10.5073 22.7736 10.1618C23.9394 9.81561 24.6262 9.71969 25.8363 9.59853C27.3068 9.45128 28.1615 9.36418 29.6206 9.59853C30.744 9.77894 32.4193 10.4082 32.4193 10.4082C32.4193 10.4082 33.7344 10.9121 34.5139 11.3587C35.3265 11.8242 35.7466 12.1515 36.4676 12.7492C37.3807 13.5061 38.615 14.8966 38.615 14.8966L33.4578 18.0121L34.3378 20.5467L39.9879 17.0616L40.2872 17.6072C40.2872 17.6072 40.6987 18.5381 40.9032 19.1562C41.1877 20.0156 41.4489 21.4092 41.4489 21.4092C41.4489 21.4092 41.6883 23.1113 41.6777 24.2078C41.6682 25.1879 41.6274 25.7434 41.4489 26.7072C41.233 27.8725 41.033 28.5211 40.5688 29.6115C40.1059 30.6988 39.7686 31.284 39.0903 32.2517C38.441 33.1778 38.0279 33.6739 37.2069 34.4519C36.3776 35.2377 35.8555 35.6292 34.8835 36.2296C34.0388 36.7515 33.5345 37.0041 32.6129 37.3737C31.634 37.7664 31.0601 37.9433 30.0255 38.1482C28.8008 38.3908 28.087 38.463 26.8396 38.4122C26.0022 38.3782 25.5334 38.3033 24.7098 38.1482C23.342 37.8906 22.571 37.6834 21.2951 37.1273C20.1946 36.6477 19.5932 36.316 18.6197 35.6136C17.7901 35.015 17.3607 34.6228 16.6483 33.8886C16.0232 33.2444 15.1698 32.1285 15.1698 32.1285M13.9377 29.6643L15.1698 32.1285" stroke="white" stroke-width="0.580281"/>
<path d="M45.1454 10.673H47.3104C47.3104 10.673 47.2776 11.1026 47.1869 11.3594C46.7502 12.5963 45.2687 12.0754 44.0276 12.5001C43.4434 12.6999 42.5276 13.0001 42.5276 13.0001L33.4932 17.9952L34.5276 20.5001L39.7769 17.1855C39.7769 17.1855 42.0379 15.3993 43.5276 14.5001C44.7205 13.78 45.6558 13.3285 46.8226 12.7148C47.7729 12.2149 48.2136 12.0794 48.8241 11.3594C49.1969 10.9198 49.581 10.0921 49.581 10.0921C49.581 10.0921 49.5325 9.53113 49.2993 9.30006C49.0491 9.05213 48.7852 9.08811 48.4369 9.03604C47.849 8.94817 46.9231 9.19445 46.9231 9.19445C46.9231 9.19445 45.8152 9.45697 45.4094 9.98652C45.2839 10.1503 45.1454 10.4442 45.1454 10.4442V10.673Z" fill="white" stroke="white" stroke-width="0.580281"/>
<path d="M15.1861 32.1395L13.9199 29.6641C13.9199 29.6641 14.7663 30.7045 15.4001 31.2792C16.1636 31.9717 17.54 32.8242 17.54 32.8242C17.54 32.8242 19.2292 33.8631 20.3755 34.4043C21.532 34.9502 23.425 35.5981 23.425 35.5981C23.425 35.5981 24.9643 36.0541 25.9751 36.2301C26.941 36.3983 27.4928 36.4393 28.4718 36.4935C29.5565 36.5534 30.169 36.5541 31.2537 36.4935C32.1344 36.4442 32.6309 36.4116 33.5007 36.2652C34.3329 36.1251 34.7969 36.0167 35.605 35.7736" stroke="white" stroke-width="0.580281"/>
<path d="M12.9697 26.2847C12.9697 26.2847 14.427 27.9615 15.5078 28.8778C16.6325 29.8313 18.61 31.0299 18.61 31.0299C18.61 31.0299 20.4858 32.1935 21.7826 32.741C23.0723 33.2855 23.8349 33.5157 25.202 33.8171C26.5444 34.113 27.3208 34.1785 28.6919 34.2758C30.3123 34.3907 31.2327 34.4094 32.8516 34.2758C34.0857 34.1739 34.7837 34.1007 35.989 33.8171C37 33.5793 37.5608 33.4038 38.5271 33.0233" stroke="white" stroke-width="0.580281"/>
<path d="M12.7935 23.6094C12.7935 23.6094 14.3611 25.2522 15.5239 26.15C16.7337 27.0842 18.861 28.2585 18.861 28.2585C18.861 28.2585 20.8789 29.3985 22.274 29.935C23.6614 30.4684 24.4818 30.694 25.9525 30.9892C27.3965 31.2792 28.2317 31.3433 29.7068 31.4386C31.4499 31.5512 32.44 31.5696 34.1816 31.4386C35.5091 31.3388 36.26 31.2671 37.5566 30.9892C38.6442 30.7562 39.2475 30.5843 40.287 30.2115" stroke="white" stroke-width="0.580281"/>
<path d="M13.1807 20.7578C13.1807 20.7578 14.7864 22.3714 15.9775 23.2533C17.2168 24.1708 19.3958 25.3243 19.3958 25.3243C19.3958 25.3243 21.4628 26.4441 22.8919 26.971C24.313 27.4949 25.1534 27.7165 26.6598 28.0065C28.139 28.2913 28.9945 28.3543 30.5054 28.4479C32.291 28.5584 33.3051 28.5765 35.0891 28.4479C36.4489 28.3498 37.2181 28.2794 38.5463 28.0065C39.6603 27.7776 40.2783 27.6088 41.3431 27.2426" stroke="white" stroke-width="0.580281"/>
<path d="M19.482 11.605C19.482 11.605 21.0482 13.4411 21.9354 14.7043C22.625 15.6861 22.9892 16.2546 23.5877 17.2944C24.3442 18.609 24.785 19.3503 25.3278 20.7666C25.8238 22.0612 25.9351 22.8435 26.2945 24.1825C26.4849 24.8921 26.7691 26.003 26.7691 26.003L25.7145 25.759C25.7145 25.759 24.1011 25.1941 23.1131 24.7268C21.3445 23.8903 20.4503 23.2192 18.8595 22.0804C18.0939 21.5323 17.6386 21.2518 16.9436 20.6164C16.2128 19.9483 15.9248 19.4536 15.2387 18.7396C14.867 18.3528 14.272 17.7636 14.272 17.7636" stroke="white" stroke-width="0.580281"/>
<path d="M16.1593 19.796C16.1593 19.796 16.2911 18.5902 16.5602 17.871C16.8898 16.9899 17.205 16.5321 17.8099 15.8116C18.3575 15.1593 18.6905 14.7746 19.4292 14.3507C20.039 14.0008 21.123 13.7411 21.123 13.7411" stroke="white" stroke-width="0.580281"/>
<path d="M17.4971 21.0991C17.4971 21.0991 17.7649 19.9519 18.0917 19.2795C18.4734 18.4939 18.8243 18.1256 19.3766 17.4489C19.8441 16.8761 20.0818 16.5174 20.6615 16.0584C21.2217 15.6149 22.2495 15.1497 22.2495 15.1497" stroke="white" stroke-width="0.580281"/>
<path d="M19.0597 22.2363C19.0597 22.2363 19.2811 21.1867 19.5691 20.5756C19.9055 19.8617 20.2234 19.5312 20.7214 18.9218C21.143 18.4059 21.3557 18.0814 21.8846 17.6731C22.3957 17.2785 23.342 16.8755 23.342 16.8755" stroke="white" stroke-width="0.580281"/>
<path d="M20.644 23.3631C20.644 23.3631 20.9588 22.556 21.2474 22.0608C21.5846 21.4822 21.8481 21.1883 22.2756 20.6606C22.6376 20.2139 22.8304 19.9413 23.2462 19.5565C23.648 19.1846 24.3395 18.7369 24.3395 18.7369" stroke="white" stroke-width="0.580281"/>
<path d="M22.5096 24.454C22.5096 24.454 22.7619 23.831 22.9891 23.447C23.2545 22.9984 23.4592 22.769 23.7921 22.3578C24.0739 22.0097 24.2247 21.7978 24.5463 21.4961C24.857 21.2046 25.3885 20.85 25.3885 20.85" stroke="white" stroke-width="0.580281"/>
<path d="M24.4729 25.3204C24.4729 25.3204 24.5914 24.9591 24.7101 24.7413C24.8489 24.4869 24.9639 24.3615 25.1484 24.1344C25.3046 23.9422 25.3864 23.8237 25.5711 23.6624C25.7496 23.5066 26.0648 23.3275 26.0648 23.3275" stroke="white" stroke-width="0.580281"/>
<path d="M26.9443 25.9854C26.9443 25.9854 29.232 26.3709 30.7122 26.4078C32.1301 26.4431 32.9253 26.3229 34.3381 26.1965C35.8072 26.0651 38.0872 25.7389 38.0872 25.7389L41.6592 25.0701" stroke="white" stroke-width="0.580281"/>
<path d="M22.228 10.3379C22.228 10.3379 23.7249 11.9195 24.5524 13.038C25.5003 14.3193 25.9593 15.0978 26.6937 16.5124C27.4286 17.9276 27.7972 18.7528 28.3043 20.2647C28.7648 21.6377 28.9481 22.4357 29.2194 23.8582C29.4015 24.813 29.5855 26.3201 29.5855 26.3201" stroke="white" stroke-width="0.580281"/>
<path d="M25.0439 9.7041C25.0439 9.7041 26.5695 11.3519 27.4128 12.5172C28.3788 13.8521 28.8466 14.6633 29.5951 16.137C30.344 17.6115 30.7197 18.4712 31.2365 20.0464C31.7059 21.4768 31.8926 22.3082 32.1691 23.7903C32.3547 24.785 32.5422 26.3551 32.5422 26.3551" stroke="white" stroke-width="0.580281"/>
<path d="M31.8735 10.2319L32.823 11.2688C32.823 11.2688 33.6093 12.1941 33.9959 12.758C34.3824 13.322 34.8709 14.2473 34.8709 14.2473L35.4294 15.6234L35.7459 16.6037" stroke="white" stroke-width="0.580281"/>
<path d="M36.3794 12.6963C36.5311 12.8618 36.7678 13.1202 36.7678 13.1202L37.2476 13.7291C37.2476 13.7291 37.4964 14.0915 37.6056 14.3379C37.7047 14.5617 37.8341 14.9005 37.8341 14.9005C37.8341 14.9005 37.913 15.1448 37.9635 15.3013" stroke="white" stroke-width="0.580281"/>
<path d="M28.4062 9.4751C28.4062 9.4751 29.2128 10.1709 29.6736 10.672C30.298 11.351 30.5905 11.7859 31.0993 12.5554C31.6104 13.3284 31.8766 13.7797 32.2786 14.6147C32.6546 15.3956 32.8329 15.8515 33.1059 16.6741C33.2771 17.1903 33.4931 18.0118 33.4931 18.0118" stroke="white" stroke-width="0.580281"/>
<path d="M34.32 20.6136C34.32 20.6136 34.8054 22.2333 35.0245 23.2926C35.2467 24.3671 35.4443 26.0707 35.4443 26.0707" stroke="white" stroke-width="0.105609"/>
<path d="M34.32 20.6136C34.32 20.6136 34.8054 22.2333 35.0245 23.2926C35.2467 24.3671 35.4443 26.0707 35.4443 26.0707" stroke="white" stroke-width="0.105609"/>
<path d="M34.32 20.6136C34.32 20.6136 34.8054 22.2333 35.0245 23.2926C35.2467 24.3671 35.4443 26.0707 35.4443 26.0707" stroke="white" stroke-width="0.580281"/>
<path d="M36.6963 19.0982C37.0045 20.3778 37.4854 22.3749 37.4854 22.3749L38.0655 25.744" stroke="white" stroke-width="0.580281"/>
<path d="M38.9144 17.7303C39.481 19.0885 39.9813 21.2354 39.9813 21.2354L40.3316 23.3306L40.4685 25.2738" stroke="white" stroke-width="0.580281"/>
<path d="M53.9333 35.9766C53.9333 35.9766 52.5315 36.3682 51.6122 36.3682C50.693 36.3682 49.2911 35.9766 49.2911 35.9766L47.7437 35.5851C47.7437 35.5851 46.0369 34.2553 45.4226 33.2356C45.0708 32.6517 44.7125 32.3501 44.6489 31.6693C44.5902 31.0416 44.6638 30.6088 45.0357 30.103C45.3609 29.6607 45.6543 29.3755 46.1963 29.3198C46.6716 29.271 46.9719 29.4056 47.3568 29.7114C47.7418 30.0172 47.8515 30.103 48.1073 30.4946L48.3425 32.0609L48.8785 30.4946L49.2911 30.103C49.2911 30.103 49.9097 29.3755 50.4517 29.3198C50.927 29.271 51.5129 29.6323 51.6122 29.7114C52.1039 30.103 52.2892 30.5279 52.3859 30.8861C52.4826 31.2443 52.4566 31.6077 52.3859 32.0609C52.3114 32.5385 51.95 32.8937 51.6122 33.2356C50.4517 34.4103 48.1305 35.5851 48.1305 35.5851C48.1305 35.5851 45.7694 36.8631 44.1121 37.1514C42.6808 37.4003 41.8439 37.223 40.3935 37.1514L35.0742 35.9766" stroke="white" stroke-width="0.580281"/>
<path d="M7.02747 34L14.0275 29.5L15.0275 32L8.52747 36C8.52747 36 7.87676 36.1746 7.52747 36C7.28048 35.8765 7.11479 35.762 7.02747 35.5C6.96572 35.3148 7.02734 35 7.02734 35L7.02747 34Z" fill="white"/>
</svg>
