<svg width="126" height="54" viewBox="0 0 126 54" fill="none" xmlns="http://www.w3.org/2000/svg">
<path d="M71.4166 5.0799C71.2932 5.29895 71.1445 5.66339 71.1445 5.66339C71.1445 5.66339 71.7614 5.31485 72.1734 5.21422C72.2673 5.19128 72.2999 5.18915 72.3947 5.20813C72.4516 5.21952 72.5293 5.27092 72.5293 5.27092C72.5293 5.27092 72.5701 5.34828 72.5772 5.40251C72.5948 5.53674 72.4307 5.7167 72.4307 5.7167L72.3021 5.87532L68.561 10.0323L67.5711 11.1008L50.709 36.9529C50.709 36.9529 50.6074 37.0976 50.6044 37.1773C50.5988 37.3283 50.745 37.4615 50.745 37.4615L51.7621 38.209C51.7621 38.209 51.9351 38.2995 52.0523 38.2896C52.1756 38.2791 52.3364 38.1489 52.3364 38.1489L69.049 12.5002L69.6889 11.5965L72.4758 7.37706L73.0918 6.4075C73.0918 6.4075 73.462 5.58016 73.6748 5.04006C73.8456 4.60672 74.018 4.34278 74.1532 3.89706C74.2548 3.56194 74.4141 3.39617 74.3086 3.09522C74.2766 3.00398 74.2023 2.96039 74.1261 2.90083C74.0485 2.84008 73.9792 2.83427 73.8808 2.8411C73.7573 2.84966 73.5518 2.96091 73.5518 2.96091C73.5518 2.96091 73.1766 3.16181 72.9417 3.33213C72.529 3.63148 72.3449 3.87221 72.0147 4.26592C71.7612 4.56813 71.6102 4.73623 71.4166 5.0799Z" fill="white"/>
<path d="M49.3566 5.03966C49.2879 5.36183 49.0238 5.80645 49.0238 5.80645L69.6078 36.8527L70.0256 38.6596L68.494 37.5389L48.1048 6.56863L48.0186 6.49763C48.0186 6.49763 47.6751 6.5601 47.4536 6.53869C47.1455 6.50891 46.9641 6.44711 46.6959 6.28038C46.4143 6.10537 46.2805 5.95069 46.0934 5.67169C45.9402 5.4431 45.8525 5.30112 45.7953 5.0323C45.7404 4.77468 45.7594 4.61887 45.8014 4.36221C45.8457 4.09167 45.8864 3.9335 46.0246 3.70211C46.1608 3.47421 46.2731 3.36357 46.4852 3.20933C46.6983 3.05431 46.8372 2.97613 47.0959 2.92458C47.3191 2.88008 47.4543 2.89703 47.6821 2.92919C48.0158 2.97629 48.2111 3.03536 48.5047 3.21283C48.8099 3.39725 48.9878 3.53571 49.1721 3.84685C49.3238 4.10295 49.3876 4.27722 49.4043 4.57259C49.4148 4.75674 49.3947 4.86118 49.3566 5.03966Z" fill="white"/>
<rect x="47.1306" y="10.3242" width="26.1836" height="25.529" rx="12.7645" fill="#C0B6B3"/>
<path d="M48.1489 28.3736C48.1489 28.3736 48.0171 27.8676 47.9258 27.5452C47.7071 26.7727 47.4659 26.372 47.3045 25.5856C47.1137 24.6563 47.1052 24.1125 47.1133 23.1639C47.1207 22.3083 47.147 21.8223 47.3045 20.9812C47.504 19.9156 47.7446 19.3425 48.1489 18.3365C48.4457 17.5978 48.6149 17.18 49.0092 16.4884C49.6489 15.3663 50.116 14.7856 51.0166 13.8597C51.9048 12.9464 52.4492 12.446 53.5498 11.8044C54.4992 11.251 55.0933 11.0339 56.1467 10.7211C57.2019 10.4077 57.8236 10.3209 58.9189 10.2112C60.2499 10.078 61.0235 9.99913 62.3442 10.2112C63.361 10.3745 64.8774 10.9441 64.8774 10.9441C64.8774 10.9441 66.0678 11.4003 66.7733 11.8044C67.5088 12.2258 67.8891 12.5221 68.5418 13.0631C69.3682 13.7481 70.4855 15.0068 70.4855 15.0068L70.8587 15.553L71.3503 16.2153L71.7281 16.9664L71.999 17.4603C71.999 17.4603 72.3715 18.3029 72.5566 18.8623C72.8141 19.6402 73.0505 20.9016 73.0505 20.9016C73.0505 20.9016 73.2673 22.4422 73.2576 23.4347C73.249 24.3219 73.2121 24.8247 73.0505 25.6971C72.8551 26.7518 72.6741 27.3389 72.2539 28.3258C71.8349 29.31 71.5296 29.8398 70.9156 30.7156C70.328 31.5539 69.954 32.0029 69.2109 32.7071C68.4603 33.4184 67.9876 33.7727 67.1079 34.3162C66.3433 34.7886 65.8868 35.0172 65.0527 35.3518C64.1666 35.7072 63.4636 35.9603 62.5134 36.0528C61.2042 36.1803 60.6968 36.2262 59.5677 36.1803C58.8097 36.1494 58.3494 36.1932 57.6039 36.0528C56.3659 35.8197 55.9633 35.6321 54.8084 35.1288C53.8123 34.6946 53.2679 34.3944 52.3868 33.7586C51.6359 33.2168 51.2472 32.8618 50.6024 32.1973C50.0366 31.6141 49.2641 30.6041 49.2641 30.6041" stroke="#63827B" stroke-width="0.525238"/>
<path d="M49.2792 30.6137L48.1332 28.373C48.1332 28.373 48.8993 29.3148 49.4729 29.835C50.164 30.4618 51.4099 31.2334 51.4099 31.2334C51.4099 31.2334 52.9388 32.1738 53.9764 32.6636C55.0232 33.1578 56.7366 33.7442 56.7366 33.7442C56.7366 33.7442 58.1299 34.1569 59.0449 34.3163C59.9191 34.4685 60.4186 34.5056 61.3047 34.5546C62.2866 34.6089 62.8409 34.6095 63.8228 34.5546C64.6199 34.51 65.0693 34.4806 65.8566 34.3481C66.6099 34.2212 67.0298 34.1231 67.7613 33.9031" stroke="#63827B" stroke-width="0.525238"/>
<path d="M47.2728 25.3145C47.2728 25.3145 48.5918 26.8322 49.5702 27.6616C50.5882 28.5247 52.3781 29.6096 52.3781 29.6096C52.3781 29.6096 54.0759 30.6628 55.2498 31.1584C56.4171 31.6513 57.1074 31.8596 58.3448 32.1324C59.5599 32.4003 60.2626 32.4595 61.5037 32.5475C62.9704 32.6515 63.8034 32.6686 65.2688 32.5475C66.3858 32.4553 67.0176 32.3891 68.1086 32.1324C69.0237 31.9171 69.5313 31.7583 70.406 31.4139" stroke="#63827B" stroke-width="0.525238"/>
<path d="M47.1129 22.8926C47.1129 22.8926 48.5319 24.3796 49.5843 25.1922C50.6794 26.0378 52.6049 27.1007 52.6049 27.1007C52.6049 27.1007 54.4314 28.1326 55.6942 28.6182C56.95 29.101 57.6925 29.3052 59.0237 29.5724C60.3308 29.8349 61.0868 29.8929 62.4219 29.9792C63.9997 30.081 64.8958 30.0977 66.4722 29.9792C67.6739 29.8888 68.3535 29.8239 69.5272 29.5724C70.5115 29.3615 71.0577 29.2059 71.9986 28.8685" stroke="#63827B" stroke-width="0.525238"/>
<path d="M47.4636 20.3115C47.4636 20.3115 48.9171 21.7721 49.9952 22.5703C51.1169 23.4008 53.0892 24.4449 53.0892 24.4449C53.0892 24.4449 54.9602 25.4584 56.2537 25.9353C57.54 26.4096 58.3006 26.6101 59.6642 26.8726C61.0031 27.1304 61.7774 27.1874 63.145 27.2721C64.7612 27.3722 65.6792 27.3886 67.2939 27.2721C68.5248 27.1834 69.221 27.1196 70.4232 26.8726C71.4315 26.6654 71.9909 26.5126 72.9547 26.1812" stroke="#63827B" stroke-width="0.525238"/>
<path d="M53.167 12.0273C53.167 12.0273 54.5846 13.6893 55.3877 14.8327C56.0119 15.7214 56.3415 16.2359 56.8832 17.1771C57.568 18.367 57.967 19.038 58.4583 20.3199C58.9073 21.4917 59.008 22.1998 59.3333 23.4118C59.5057 24.0541 59.7628 25.0597 59.7628 25.0597L58.8083 24.8388C58.8083 24.8388 57.348 24.3274 56.4537 23.9045C54.8529 23.1473 54.0434 22.5399 52.6036 21.5091C51.9105 21.013 51.4984 20.7591 50.8694 20.184C50.2079 19.5792 49.9472 19.1315 49.3262 18.4852C48.9898 18.1351 48.4512 17.6018 48.4512 17.6018" stroke="#63827B" stroke-width="0.525238"/>
<path d="M50.1601 19.4405C50.1601 19.4405 50.2794 18.3491 50.5229 17.6981C50.8213 16.9006 51.1066 16.4862 51.6541 15.8341C52.1498 15.2436 52.4512 14.8954 53.1198 14.5117C53.6717 14.195 54.6529 13.9599 54.6529 13.9599" stroke="#63827B" stroke-width="0.525238"/>
<path d="M51.3707 20.6208C51.3707 20.6208 51.6132 19.5824 51.9089 18.9738C52.2545 18.2628 52.5721 17.9293 53.0719 17.3169C53.4951 16.7984 53.7103 16.4737 54.235 16.0583C54.742 15.6568 55.6723 15.2358 55.6723 15.2358" stroke="#63827B" stroke-width="0.525238"/>
<path d="M52.7849 21.65C52.7849 21.65 52.9853 20.7 53.246 20.1469C53.5505 19.5007 53.8383 19.2015 54.289 18.6499C54.6706 18.183 54.8631 17.8893 55.3419 17.5197C55.8045 17.1625 56.661 16.7977 56.661 16.7977" stroke="#63827B" stroke-width="0.525238"/>
<path d="M54.2185 22.6694C54.2185 22.6694 54.5034 21.9389 54.7647 21.4907C55.0699 20.9669 55.3084 20.7009 55.6954 20.2233C56.023 19.8189 56.1976 19.5722 56.5739 19.2239C56.9376 18.8873 57.5635 18.482 57.5635 18.482" stroke="#63827B" stroke-width="0.525238"/>
<path d="M55.9082 23.6578C55.9082 23.6578 56.1366 23.0939 56.3422 22.7463C56.5825 22.3403 56.7677 22.1326 57.0691 21.7604C57.3242 21.4453 57.4607 21.2535 57.7517 20.9805C58.033 20.7166 58.514 20.3956 58.514 20.3956" stroke="#63827B" stroke-width="0.525238"/>
<path d="M57.6842 24.4419C57.6842 24.4419 57.7915 24.1149 57.899 23.9178C58.0246 23.6875 58.1287 23.5739 58.2957 23.3684C58.437 23.1944 58.5111 23.0872 58.6783 22.9412C58.8399 22.8001 59.1252 22.6381 59.1252 22.6381" stroke="#63827B" stroke-width="0.525238"/>
<path d="M59.9216 25.043C59.9216 25.043 61.9923 25.3919 63.3321 25.4253C64.6155 25.4573 65.3353 25.3485 66.614 25.2341C67.9438 25.1152 70.0075 24.8199 70.0075 24.8199L73.2407 24.2145" stroke="#63827B" stroke-width="0.525238"/>
<path d="M55.653 10.8799C55.653 10.8799 57.0079 12.3114 57.7568 13.3239C58.6148 14.4836 59.0303 15.1883 59.6951 16.4687C60.3602 17.7497 60.6939 18.4966 61.1529 19.8651C61.5697 21.1078 61.7356 21.8302 61.9812 23.1177C62.146 23.9819 62.3125 25.3461 62.3125 25.3461" stroke="#63827B" stroke-width="0.525238"/>
<path d="M58.2019 10.3066C58.2019 10.3066 59.5827 11.7981 60.3461 12.8529C61.2205 14.0612 61.6439 14.7954 62.3214 16.1293C62.9992 17.464 63.3393 18.2421 63.8071 19.6679C64.2319 20.9626 64.401 21.7152 64.6512 23.0567C64.8192 23.957 64.9889 25.3782 64.9889 25.3782" stroke="#63827B" stroke-width="0.525238"/>
<path d="M64.3831 10.7842C64.3831 10.7842 64.9186 11.3457 65.2425 11.7227C65.6791 12.2309 66.3041 13.0706 66.3041 13.0706L67.0961 14.4186C67.0961 14.4186 67.4052 15.1774 67.6016 15.6643C68.0484 16.7718 68.7322 18.5057 68.7322 18.5057C68.7322 18.5057 69.1428 20.2984 69.3868 21.4513C69.6567 22.7265 70.0414 24.7243 70.0414 24.7243" stroke="#63827B" stroke-width="0.525238"/>
<path d="M68.4622 13.0146C68.4622 13.0146 68.6812 13.2442 68.8137 13.3983C68.9924 13.6061 69.0942 13.7227 69.248 13.9494C69.3882 14.156 69.572 14.5006 69.572 14.5006C69.572 14.5006 69.8724 14.9383 70.0411 15.2332C70.5834 16.1811 71.023 17.8515 71.023 17.8515L72.0049 22.7609C72.0049 22.7609 72.3203 24.3606 72.3322 24.3974" stroke="#63827B" stroke-width="0.525238"/>
<path d="M61.2451 10.0996C61.2451 10.0996 61.9751 10.7294 62.3922 11.183C62.9574 11.7976 63.2222 12.1912 63.6827 12.8877C64.1453 13.5874 64.3862 13.9959 64.7501 14.7517C65.0905 15.4586 65.2519 15.8712 65.4989 16.6158C65.5738 16.8413 66.2428 18.4883 66.7682 20.4701C67.3311 22.5932 67.7501 25.0523 67.7501 25.0523" stroke="#63827B" stroke-width="0.525238"/>
<path d="M11.4788 14.274C11.4788 14.274 11.2432 14.2278 11.1045 14.274C10.7945 14.3773 10.7302 15.0226 10.7302 15.0226C10.7302 15.0226 10.3624 16.2051 9.98162 16.8941C9.7267 17.3554 9.23301 18.017 9.23301 18.017L8.11009 18.7661H7.36147L6.61286 18.7657L5.86425 18.017C5.86425 18.017 5.27626 17.3961 5.11563 16.8941C4.93743 16.3372 5.11563 15.3969 5.11563 15.3969L5.48994 14.2744L5.86425 13.1511C5.86425 13.1511 6.33165 11.7307 6.98717 10.9052C7.88707 9.77201 8.45445 9.15966 9.60731 8.28508C10.8063 7.37549 11.9374 6.93172 13.3504 6.41354C14.7499 5.90028 15.6186 5.88204 17.0934 5.66493C18.6908 5.42979 21.2108 5.29062 21.2108 5.29062H24.5796L26.8254 5.66493L28.6969 6.78785L29.4456 7.53661L30.1942 9.03369V10.9052L29.8199 12.0283L29.4456 12.7768L27.1997 15.0226L24.2053 16.8941L20.0879 18.7657H18.5907C18.006 18.7657 18.5264 19.8495 18.965 20.2629C19.612 20.8727 21.2108 19.8886 21.2108 19.8886C21.2108 19.8886 22.3257 19.357 23.0823 19.14C23.937 18.8947 24.4395 18.737 25.3282 18.7657C26.0732 18.7897 26.4969 18.8919 27.1997 19.14C27.8162 19.3575 28.1683 19.5041 28.6969 19.8886C29.1985 20.2534 29.4305 20.5289 29.8199 21.0116C30.1507 21.4219 30.3411 21.659 30.5685 22.1344C30.7679 22.5514 30.8601 22.8025 30.9428 23.2573C31.0474 23.8326 31.0236 24.1755 30.9428 24.7546C30.7889 25.8571 30.3998 26.4244 29.8199 27.3747C29.2332 28.3359 28.7685 28.8006 27.9813 29.5877L27.9483 29.6207C27.1411 30.4279 25.7025 31.4921 25.7025 31.4921L22.708 32.9893C22.708 32.9893 21.7723 33.4218 20.4622 33.7381C19.8763 33.8795 17.8421 34.1122 17.8421 34.1122C17.8421 34.1122 17.0071 34.1384 16.4998 33.9995C15.9621 33.8523 15.6374 33.7381 15.1227 33.3636C14.608 32.9891 14.4383 32.4511 13.9998 31.8664C13.9998 31.8664 13.7247 31.1821 13.7247 30.7436C13.7247 30.3051 13.9998 29.4995 13.9998 29.4995C13.9998 29.4995 14.5086 28.527 14.8476 28.1235C15.1135 27.8069 15.3303 27.6914 15.5962 27.3748C15.9352 26.9713 15.9705 26.6262 15.9705 26.6262V26.2518C15.4029 25.9274 14.9998 26.4995 14.4998 26.9995C14.4998 26.9995 13.9998 27.4995 13.7511 28.1226C13.5025 28.7456 12.9761 29.2495 12.9761 29.9948C12.9761 30.7402 13.0419 31.1878 13.3504 31.8664C13.5685 32.3462 13.7681 32.5792 14.099 32.9894L14.1306 33.0286C14.5008 33.4879 14.7266 33.768 15.2219 34.1122C15.8683 34.5614 16.3194 34.7175 17.0934 34.8608C17.8121 34.9939 18.2361 34.9152 18.965 34.8608C19.8517 34.7947 20.3443 34.686 21.2108 34.4865C22.5622 34.1754 23.3081 33.9172 24.5796 33.3636C25.9594 32.7628 26.8141 32.1071 27.9483 31.1179C28.8088 30.3675 29.1388 30.1625 29.8199 29.2462C30.4487 28.4003 30.8739 27.9568 31.3171 27.0004C31.7645 26.0348 32.0681 25.4444 32.0657 24.3802C32.064 23.6349 31.9521 23.207 31.6914 22.5087C31.3933 21.7102 30.5685 20.6372 30.5685 20.6372C30.5685 20.6372 29.7285 19.6417 29.0713 19.14C27.9269 18.2664 25.7025 17.6427 25.7025 17.6427L28.3226 15.7712C28.3226 15.7712 29.3693 14.8496 29.8199 14.2741C30.3052 13.6543 30.9428 12.7769 30.9428 12.7769C30.9428 12.7769 31.1863 12.4204 31.3171 12.0281C31.4479 11.6359 31.4267 10.5311 31.3171 9.7823C31.2298 9.18596 30.9428 8.28523 30.9428 8.28523C30.9428 8.28523 30.5663 7.32533 30.1942 6.78785C29.7235 6.10798 29.3682 5.77347 28.6969 5.29062C27.7932 4.64057 27.1476 4.47202 26.0768 4.16771C24.5237 3.72635 23.5723 3.86665 21.9594 3.79363C20.3531 3.72092 19.4274 3.89976 17.8421 4.16809C16.8168 4.34162 16.386 4.22898 15.2219 4.54198C14.0579 4.85498 13.3598 4.87786 12.2275 5.29103C10.9992 5.73917 10.2904 6.01926 9.23301 6.78825C8.2299 7.51779 7.44755 8.11663 6.61286 9.03409C5.84457 9.87857 5.55416 10.2563 5.11563 11.2795L3.99271 13.8997C3.99271 13.8997 3.61841 15.0258 3.61841 15.7712C3.61841 16.5166 3.68429 16.9642 3.99271 17.6427C4.21081 18.1225 4.35631 18.4057 4.74133 18.7657C5.21889 19.2121 5.6004 19.3725 6.23855 19.5143C6.80933 19.6411 7.16051 19.6189 7.73578 19.5143C8.19057 19.4316 8.8587 19.14 8.8587 19.14C8.8587 19.14 10.2917 18.3736 10.7302 17.6427L11.8532 15.7712C12.2917 15.0403 11.8532 14.6483 11.8532 14.6483L11.4788 14.274Z" fill="white" stroke="white" stroke-width="1.30918"/>
<path d="M18.2038 7.0498L16.8946 7.70439L13.6218 18.1778L11.6579 24.7237C11.6579 24.7237 10.3316 28.5115 9.03971 30.615C8.37082 31.7042 7.07594 33.2334 7.07594 33.2334C7.07594 33.2334 6.32476 33.764 5.76676 33.888C5.26767 33.9989 4.95667 33.9989 4.45758 33.888C3.89958 33.764 3.58219 33.6054 3.14819 33.2334C2.58232 32.7484 2.21588 32.2839 2.19109 31.4495C2.16631 30.615 2.49381 29.6332 2.49381 29.6332C2.8209 28.9786 3.05097 28.6091 3.4757 27.9967C4.0446 27.1764 5 25.999 5 25.999C5 25.999 3.837 26.5039 3.1484 27.0148C2.56773 27.4456 2.16643 27.9967 1.83907 28.6513C1.51172 29.3059 1.18441 30.2878 1.18441 30.2878C1.18441 30.2878 0.769342 31.6444 1.18463 32.5788C1.5517 33.4047 2.05305 33.7389 2.82111 34.2153C3.40604 34.5781 3.77826 34.759 4.45758 34.8699C4.96217 34.9523 5.26646 34.9752 5.76676 34.8699C6.66869 34.68 7.01286 34.4666 7.73032 33.888C8.57456 33.2072 9.02956 32.4539 9.69431 31.5969C10.5009 30.5571 10.7267 29.8204 11.3308 28.6513C14.5408 22.439 18.2038 7.0498 18.2038 7.0498Z" fill="white" stroke="white" stroke-width="1.30918"/>
<path d="M42.6173 22.4331C42.6173 22.4331 44.0388 21.7533 43.2719 23.4149L41.3081 27.6698C41.3081 27.6698 40.4911 29.4141 40.3262 30.6154C40.2045 31.5018 40.0169 32.0669 40.3262 32.9065C40.425 33.1747 40.4514 33.359 40.6535 33.5611C40.9393 33.8469 41.2312 33.8884 41.6354 33.8884C42.207 33.8884 42.9446 33.2338 42.9446 33.2338C42.9446 33.2338 43.8052 32.1346 43.9265 32.5792C43.9601 32.7025 43.9265 32.9065 43.9265 32.9065C43.9265 32.9065 43.8324 33.1384 43.8183 33.2655C43.7279 34.0789 42.9651 34.3373 42.1819 34.5746C41.5702 34.76 41.2554 34.7579 40.6535 34.543C40.2195 34.388 39.9467 34.2581 39.6716 33.8884C39.357 33.4656 39.4149 33.1015 39.3443 32.5792C39.1893 31.4322 39.6716 29.6335 39.6716 29.6335C39.6716 29.6335 38.6324 31.3694 37.7078 32.2519C36.9125 33.0111 36.3436 33.6241 35.4168 34.2157C34.5481 34.7701 34.1312 34.972 33.1257 35.1976C32.3774 35.3654 31.8851 35.4528 31.1619 35.1976C30.8924 35.1024 30.5074 34.8703 30.5074 34.8703C30.5074 34.8703 30.393 34.4443 30.5074 34.2157C30.5882 34.054 30.8346 33.8884 30.8346 33.8884C30.8346 33.8884 31.4202 34.1364 31.8165 34.2157C32.4432 34.341 33.453 34.2157 33.453 34.2157C33.453 34.2157 35.3603 33.1647 36.3987 32.2519C37.4191 31.3548 38.6897 29.6335 38.6897 29.6335L37.7078 29.9608C37.7078 29.9608 36.6914 30.1158 36.0714 29.9608C35.5168 29.8222 35.1115 29.7587 34.7622 29.3063C34.4402 28.8891 34.4349 27.9971 34.4349 27.9971C34.4349 27.9971 34.4695 26.5611 34.7622 25.706C35.2922 24.1573 35.6903 23.3395 37.0533 22.4331C37.8638 21.894 38.6982 21.4512 39.6716 21.4512C40.645 21.4512 41.9627 22.7604 41.9627 22.7604C42.2183 22.7604 42.3616 22.4331 42.6173 22.4331Z" fill="white" stroke="white" stroke-width="0.981885"/>
<path d="M40.7251 23.0386C40.9601 23.2735 40.9687 23.5145 40.9942 23.8459C41.0274 24.2779 40.8457 24.5061 40.7251 24.9223C40.4752 25.7847 40.2554 26.288 39.672 27.0156C39.0887 27.7431 39.0174 27.7329 39.0174 27.7329C39.0174 27.7329 38.0602 28.7519 37.4955 28.7148C37.1639 28.693 36.7748 28.8586 36.3987 28.6521C35.9948 28.4302 35.9495 27.9886 35.7442 27.6702C35.3978 27.1329 35.9294 26.3294 36.1504 25.7296C36.4629 24.8813 36.8382 24.4661 37.4959 23.8459C37.8782 23.4854 38.5723 23.0386 38.5723 23.0386C38.5723 23.0386 39.3861 22.703 39.9178 22.7695C40.2475 22.8107 40.4901 22.8036 40.7251 23.0386Z" fill="#757575" stroke="white" stroke-width="0.981885"/>
<path d="M80.249 17.5377C80.2025 17.0792 79.5942 16.5558 79.5942 16.5558C79.5942 16.5558 79.2274 15.9553 79.2668 15.5739C79.35 14.7698 79.2087 14.6479 79.5942 13.9374C80.0394 13.1169 80.9034 12.301 80.9034 12.301C80.9034 12.301 83.1945 10.3372 84.1764 9.68257C85.1583 9.02798 85.5729 8.95634 86.4676 8.70071C87.3623 8.44507 87.484 8.54568 88.104 8.70068C88.6585 8.83932 89.0639 9.23008 89.4131 9.68257C89.7352 10.0997 89.7406 10.6645 89.7406 10.6645C89.7406 10.6645 89.9992 11.8538 90.0679 12.6282C90.2149 14.2883 89.7406 16.8831 89.7406 16.8831L87.7768 24.0836C87.7768 24.0836 86.4696 27.963 85.1583 29.9749C84.3626 31.1958 84.2025 32.0091 82.8674 32.5932C82.2703 32.8545 81.8804 32.9749 81.2309 32.9205C80.545 32.8632 80.0811 32.7527 79.5944 32.266C79.1077 31.7792 78.801 31.2914 78.6125 30.6294C78.3679 29.7706 78.4582 29.2421 78.6071 28.3703L78.6125 28.3384C78.7568 27.4932 78.946 26.7262 79.3294 25.9593C79.8407 24.9368 80.3152 24.6082 80.9659 23.6683C81.7891 22.4793 83.522 21.1379 83.522 21.1379H83.1947L81.5582 22.1198C81.5582 22.1198 79.7219 23.2998 78.9398 24.4109C78.4463 25.112 78.2263 25.5603 77.9579 26.3746C77.5559 27.5946 77.5154 28.3682 77.6306 29.6476C77.7252 30.6973 77.7466 31.36 78.2852 32.266C78.7471 33.0428 79.1133 33.4982 79.9217 33.9024C80.7301 34.3066 81.3199 34.3697 82.2128 34.2297C82.8928 34.1231 83.265 33.939 83.8493 33.5751C84.8496 32.9522 85.139 32.2507 85.813 31.2841C86.7939 29.8775 87.7768 27.3565 87.7768 27.3565C87.7768 27.3565 88.7279 25.1259 89.2384 23.6683C89.761 22.1761 90.3952 19.8287 90.3952 19.8287L91.0497 19.1741L93.0135 17.5377L96.6138 13.4757L96.2865 14.2647L94.3227 20.4833L92.0316 29.6476C92.0316 29.6476 90.7941 33.8463 91.0497 34.2297L91.7043 35.2116C91.96 35.5951 92.4306 34.925 92.6862 33.9024L93.3408 31.2841L96.2865 26.7019L100.214 21.1379C100.214 21.1379 99.458 23.2984 99.2321 24.7382C98.9152 26.7585 98.5752 27.9565 98.9047 29.9749C99.0745 31.0151 99.3208 31.704 99.8867 32.5932C100.275 33.2032 100.59 33.5075 101.196 33.9024C101.772 34.2784 102.149 34.4714 102.832 34.557C103.592 34.6522 104.048 34.4921 104.763 34.2415L104.796 34.2297C105.336 34.0405 105.643 33.9113 106.105 33.5751C106.544 33.2562 106.74 33.0102 107.087 32.5932C107.746 31.801 108.396 30.3022 108.396 30.3022L107.414 31.6113C107.414 31.6113 106.268 32.8609 105.451 33.2478C104.974 33.4734 104.142 33.5751 104.142 33.5751C104.142 33.5751 103.111 33.7772 102.505 33.5751C101.899 33.373 101.539 33.1326 101.196 32.5932C100.846 32.0431 100.674 31.9221 100.541 31.284C100.301 30.1303 100.306 29.5132 100.214 28.3384C100.104 26.9309 100.34 25.8082 100.541 24.4109C100.802 22.5995 101.523 19.8287 101.523 19.8287C101.523 19.8287 102.438 17.398 103.16 15.9012C104.254 13.6303 104.661 11.8038 106.432 10.0099C107.134 9.29946 107.434 8.96516 108.396 8.70071C109.013 8.53141 109.436 8.47129 110.033 8.70071C110.708 8.96026 111.2 9.30089 111.342 10.0099C111.392 10.2606 111.342 10.6645 111.342 10.6645L111.342 11.3191C111.342 11.7799 111.089 11.8461 111.015 12.3009C110.869 13.193 111.461 14.2069 112.324 13.9374C112.623 13.8442 112.978 13.2828 112.978 13.2828C112.978 13.2828 113.209 12.1292 112.978 11.319C112.822 10.7692 112.324 10.0099 112.324 10.0099C112.324 10.0099 111.666 8.51403 110.687 8.04609C110.323 7.8717 109.378 7.71882 109.378 7.71882C109.378 7.71882 108.352 7.81727 107.742 8.04612C106.879 8.36975 106.472 8.74835 105.778 9.3553C104.391 10.5692 103.16 13.2828 103.16 13.2828L100.869 18.1923L99.5594 20.4833L93.3408 28.993L94.9773 21.7925C94.9773 21.7925 96.309 17.0989 97.5956 14.2647C98.4939 12.2862 99.2316 11.2934 100.214 9.3553C100.472 8.84544 100.971 8.60851 100.869 8.04612C100.772 7.51258 100.424 7.14092 99.8867 7.06423C99.4866 7.00707 99.2173 7.13509 98.9048 7.39153C98.48 7.74024 98.581 8.18601 98.3881 8.70071C98.1977 9.20878 98.137 9.51131 97.9229 10.0099C97.096 11.9362 94.9772 14.2647 94.9772 14.2647C94.9772 14.2647 93.3408 16.2285 92.0316 17.2104C90.7225 18.1923 90.7224 17.5377 90.7224 17.5377C90.7224 17.5377 91.7448 14.3289 91.377 12.301C91.1314 10.9464 90.9992 10.0418 90.0679 9.028C89.4443 8.34925 88.9874 7.98194 88.1041 7.71882C87.2466 7.4634 86.691 7.54651 85.813 7.71882C84.8578 7.90629 84.3083 8.09428 83.4596 8.57102C81.6455 9.59006 79.267 11.9736 79.267 11.9736C79.267 11.9736 76.8259 14.73 77.3034 16.5558C77.448 17.1088 77.9579 17.5376 77.9579 17.5376L79.2671 17.8649C79.2671 17.8649 80.2898 17.9398 80.249 17.5377Z" fill="white" stroke="white" stroke-width="0.981885"/>
<path d="M123.403 31.9289C122.627 31.9798 121.439 32.2562 121.439 32.2562V33.2381C121.439 33.2381 122.692 32.7113 123.076 32.5835L124.058 32.2562H125.694L124.712 31.9289C124.712 31.9289 123.913 31.8955 123.403 31.9289Z" fill="white" stroke="white" stroke-width="0.981885"/>
<path d="M110.639 24.7283C110.639 24.7283 110.803 24.9783 110.966 25.0556C111.383 25.2529 111.948 24.401 111.948 24.401C111.948 24.401 112.326 23.979 112.603 23.7465C112.955 23.45 113.127 23.149 113.585 23.0919C113.711 23.076 113.912 23.0919 113.912 23.0919L114.239 23.4192C114.239 23.4192 114.518 24.3453 114.5 24.7283C114.358 27.8139 111.5 28.4995 111.227 31.9288C111.185 32.4542 111.293 32.9107 111.293 32.9107C111.293 32.9107 111.392 33.3938 111.621 33.5653C111.927 33.7954 112.223 33.6183 112.603 33.5653C113.623 33.4229 114.894 32.2561 114.894 32.2561L119.149 27.0194L121.44 24.401L120.785 28.0013L120.13 32.5834L117.839 33.5653L113.912 35.5291C113.912 35.5291 111.659 37.2567 110.312 38.4747C108.098 40.4755 105.075 44.0388 105.075 44.0388C105.075 44.0388 103.377 45.6532 102.784 46.9844C102.355 47.9472 102.048 48.5519 102.129 49.6028C102.191 50.4088 102.262 50.9494 102.784 51.5665C103.413 52.3096 104.115 52.3839 105.075 52.5484C106.216 52.7441 106.914 52.5611 108.02 52.2211C109.445 51.7834 110.089 51.1352 111.293 50.2574C112.683 49.2446 113.405 48.5797 114.566 47.3117C116.243 45.4817 116.982 44.256 118.167 42.075C119.73 39.1958 121.112 34.2199 121.112 34.2199L121.767 30.2924L122.749 23.4192C122.749 23.4192 122.907 22.2173 122.421 21.7827C122.208 21.5921 122.051 21.4862 121.767 21.4554C121.026 21.375 121.181 22.4606 120.785 23.0919C118.991 25.9501 115.548 29.9651 115.548 29.9651L113.585 31.9288L112.603 32.5834C112.475 32.4556 112.275 32.6396 112.275 32.2561V31.2742C112.24 30.6154 114.576 26.8668 115.221 25.0556C115.482 24.3232 115.852 23.8075 115.548 23.0919C115.336 22.5927 115.07 22.3114 114.566 22.11C114.092 21.9201 113.257 22.11 113.257 22.11C113.257 22.11 112.634 22.4753 112.275 22.7646C111.498 23.3912 110.639 24.7283 110.639 24.7283Z" fill="white" stroke="white" stroke-width="0.981885"/>
<path d="M113.257 37.4928C115.536 35.8546 119.476 33.8926 119.476 33.8926C119.476 33.8926 119.505 34.6913 119.476 35.2018C119.327 37.7856 117.185 41.4204 117.185 41.4204C117.185 41.4204 114.831 46.2085 112.275 48.2936C110.37 49.8477 109.145 50.8929 106.711 51.2392C105.699 51.3833 104.093 51.2392 104.093 51.2392C104.093 51.2392 103.531 50.2847 103.438 49.6027C103.296 48.5584 103.709 47.9659 104.093 46.9844C104.988 44.6979 108.021 42.075 108.021 42.075C108.021 42.075 111.051 39.0792 113.257 37.4928Z" fill="#757575" stroke="white" stroke-width="0.981885"/>
</svg>
