<svg width="127" height="59" viewBox="0 0 127 59" fill="none" xmlns="http://www.w3.org/2000/svg">
<path d="M71.735 11.3128C71.6137 11.5298 71.4659 11.8898 71.4659 11.8898C71.4659 11.8898 72.0604 11.5379 72.4552 11.4326C72.5453 11.4085 72.5764 11.4059 72.6666 11.423C72.7207 11.4333 72.7941 11.4825 72.7941 11.4825C72.7941 11.4825 72.8318 11.5578 72.8377 11.6109C72.8524 11.7424 72.6929 11.9216 72.6929 11.9216L72.5676 12.0793L68.9298 16.219L67.9678 17.2834L51.4576 42.9254C51.4576 42.9254 51.3582 43.069 51.3541 43.1473C51.3464 43.2955 51.4839 43.4239 51.4839 43.4239L52.4428 44.1413C52.4428 44.1413 52.6065 44.2274 52.7185 44.2158C52.8365 44.2035 52.992 44.0731 52.992 44.0731L69.3562 18.6333L69.9815 17.7361L72.7094 13.5504L73.313 12.589C73.313 12.589 73.6796 11.7711 73.8914 11.2376C74.0613 10.8096 74.2301 10.5478 74.3663 10.1082C74.4687 9.77768 74.6234 9.61243 74.5275 9.31876C74.4984 9.22972 74.4281 9.18813 74.3564 9.13088C74.2832 9.07251 74.2172 9.06791 74.1232 9.07618C74.0051 9.08656 73.8072 9.19904 73.8072 9.19904C73.8072 9.19904 73.4457 9.4022 73.2188 9.57311C72.8201 9.8735 72.6405 10.1127 72.3189 10.5044C72.0721 10.805 71.9253 10.9724 71.735 11.3128Z" fill="#8DB19F"/>
<path d="M50.3734 10.165C50.3082 10.4847 50.052 10.9248 50.052 10.9248L70.4855 41.9255L70.9084 43.7242L69.3964 42.5996L49.1547 11.6758L49.0695 11.6047C49.0695 11.6047 48.7326 11.6643 48.5149 11.6415C48.2122 11.6097 48.0336 11.547 47.769 11.3795C47.4912 11.2035 47.3587 11.0489 47.173 10.7703C47.0209 10.542 46.9338 10.4003 46.8757 10.1327C46.8201 9.87626 46.8376 9.72154 46.8771 9.46674C46.9187 9.19817 46.9575 9.04125 47.0917 8.81224C47.2238 8.5867 47.3334 8.47752 47.5405 8.32572C47.7488 8.17313 47.8846 8.09641 48.1383 8.04699C48.3572 8.00433 48.4901 8.02212 48.7141 8.05569C49.0421 8.10484 49.2344 8.16491 49.524 8.34336C49.8249 8.52879 50.0007 8.66766 50.1839 8.97818C50.3346 9.23378 50.3985 9.40743 50.417 9.70111C50.4286 9.8842 50.4096 9.98787 50.3734 10.165Z" fill="#8DB19F"/>
<rect x="47.5" y="15.5" width="26" height="26" rx="12.7645" fill="#C0B6B3"/>
<path d="M48.5317 33.7112C48.5317 33.7112 48.4007 33.2074 48.3099 32.8865C48.0924 32.1175 47.8526 31.7186 47.6921 30.9357C47.5024 30.0106 47.4939 29.4693 47.502 28.5249C47.5093 27.6732 47.5355 27.1893 47.6921 26.3521C47.8905 25.2912 48.1298 24.7208 48.5317 23.7193C48.8269 22.9839 48.9952 22.568 49.3872 21.8795C50.0234 20.7624 50.4879 20.1844 51.3834 19.2626C52.2666 18.3535 52.808 17.8553 53.9024 17.2166C54.8464 16.6657 55.4372 16.4495 56.4847 16.1381C57.534 15.8262 58.1522 15.7398 59.2413 15.6306C60.5649 15.4979 61.3341 15.4194 62.6475 15.6306C63.6586 15.7931 65.1665 16.3601 65.1665 16.3601C65.1665 16.3601 66.3502 16.8142 67.0517 17.2166C67.7831 17.6361 68.1613 17.931 68.8103 18.4696C69.6321 19.1515 70.7431 20.4045 70.7431 20.4045L71.1142 20.9483L71.6031 21.6076L71.9788 22.3553L72.2481 22.847C72.2481 22.847 72.6185 23.6858 72.8026 24.2427C73.0586 25.0171 73.2937 26.2728 73.2937 26.2728C73.2937 26.2728 73.5093 27.8065 73.4997 28.7945C73.4911 29.6777 73.4544 30.1783 73.2937 31.0467C73.0995 32.0967 72.9195 32.6811 72.5016 33.6636C72.0849 34.6434 71.7814 35.1707 71.1708 36.0427C70.5865 36.8772 70.2146 37.3242 69.4757 38.0252C68.7292 38.7333 68.2593 39.086 67.3844 39.6271C66.6241 40.0973 66.1702 40.3249 65.3407 40.658C64.4596 41.0118 63.7606 41.2638 62.8157 41.3558C61.5139 41.4827 61.0093 41.5284 59.8866 41.4827C59.1328 41.452 58.6751 41.4956 57.9338 41.3558C56.7027 41.1238 56.3024 40.937 55.154 40.4359C54.1634 40.0038 53.6221 39.7049 52.7459 39.072C51.9992 38.5326 51.6127 38.1792 50.9715 37.5177C50.4088 36.9371 49.6407 35.9316 49.6407 35.9316" stroke="#63827B" stroke-width="0.525238"/>
<path d="M49.6678 36.0206L48.5 33.5C48.5 33.5 49.2806 34.5594 49.8651 35.1446C50.5693 35.8497 51.8388 36.7178 51.8388 36.7178C51.8388 36.7178 53.3967 37.7756 54.4539 38.3266C55.5206 38.8826 57.2664 39.5422 57.2664 39.5422C57.2664 39.5422 58.6862 40.0065 59.6184 40.1858C60.5092 40.3571 61.0182 40.3988 61.9211 40.4539C62.9215 40.515 63.4864 40.5157 64.4868 40.4539C65.299 40.4038 67.6978 39.1491 68.5 39" stroke="#63827B" stroke-width="0.525238"/>
<path d="M48 32C48 32 48.8114 32.9519 49.7841 33.7453C50.7963 34.5709 52.5759 35.6087 52.5759 35.6087C52.5759 35.6087 54.2639 36.6162 55.431 37.0903C56.5917 37.5618 57.278 37.7611 58.5083 38.022C59.7163 38.2783 60.415 38.335 61.649 38.4192C63.1072 38.5187 63.9355 38.5349 65.3924 38.4192C66.503 38.3309 67.1311 38.2676 68.2159 38.022C69.1256 37.8161 69.1304 37.8295 70 37.5" stroke="#63827B" stroke-width="0.525238"/>
<path d="M47.5 28.5C47.5 28.5 48.9255 29.9519 49.9828 30.7453C51.0829 31.5709 53.0172 32.6087 53.0172 32.6087C53.0172 32.6087 54.8521 33.6162 56.1207 34.0903C57.3823 34.5618 58.1282 34.7611 59.4655 35.022C60.7786 35.2783 61.538 35.335 62.8793 35.4192C64.4644 35.5187 65.3646 35.5349 66.9483 35.4192C68.1554 35.3309 68.8382 35.2676 70.0172 35.022C71.0061 34.8161 71.0548 34.8295 72 34.5" stroke="#63827B" stroke-width="0.525238"/>
<path d="M47.5 26.5C47.5 26.5 48.9255 27.9519 49.9828 28.7453C51.0829 29.5709 53.0172 30.6087 53.0172 30.6087C53.0172 30.6087 54.8521 31.6162 56.1207 32.0903C57.3823 32.5618 58.1282 32.7611 59.4655 33.022C60.7786 33.2783 61.538 33.335 62.8793 33.4192C64.4644 33.5187 65.3646 33.5349 66.9483 33.4192C68.1554 33.3309 68.8382 33.2676 70.0172 33.022C71.0061 32.8161 72.0548 32.3295 73 32" stroke="#63827B" stroke-width="0.525238"/>
<path d="M54 17C54 17 55.4644 19.1578 56.2454 20.2984C56.8524 21.1848 57.173 21.6981 57.6997 22.637C58.3656 23.8239 58.7537 24.4932 59.2314 25.772C59.668 26.9409 59.766 27.6472 60.0823 28.8562C60.2499 29.4969 60.5 30.5 60.5 30.5L59.5717 30.2797C59.5717 30.2797 58.1517 29.7696 57.282 29.3477C55.7253 28.5924 54.9382 27.9865 53.538 26.9582C52.8641 26.4633 52.4633 26.2101 51.8516 25.6364C51.2083 25.0332 50.9548 24.5865 50.3509 23.9418C50.0237 23.5926 49 22.5 49 22.5" stroke="#63827B" stroke-width="0.525238"/>
<path d="M51.0001 24.4999C51.0001 24.4999 51.126 23.3212 51.3645 22.6072C51.5658 22.0042 51.5047 21.7715 52.0487 21.13C52.5413 20.5492 53.0447 19.8905 53.9258 19.4567C54.5001 19.174 55.5001 19 55.5001 19" stroke="#63827B" stroke-width="0.525238"/>
<path d="M52.2813 26.1241C52.2813 26.1241 52.409 24.9748 52.671 24.326C52.977 23.568 53.3099 23.2376 53.8198 22.6173C54.2514 22.0922 54.461 21.7552 55.0328 21.3644C55.5855 20.9867 56.6502 20.6549 56.6502 20.6549" stroke="#63827B" stroke-width="0.525238"/>
<path d="M54 27.5001C54 27.5001 54.3539 25.7974 54.5393 25.21C54.7559 24.5238 55.0518 24.249 55.491 23.7191C55.8628 23.2705 55.9702 23.3035 56.5 23.0001C57.0119 22.707 57.5 22.5001 57.5 22.5001" stroke="#63827B" stroke-width="0.525238"/>
<path d="M55.5 28.5C55.5 28.5 55.642 26.7908 55.8166 26.3173C56.0206 25.7642 56.2618 25.5309 56.6266 25.0884C56.9355 24.7138 57.2883 24.4708 57.7094 24.2017C58.1164 23.9417 58.4999 24 58.4999 24" stroke="#63827B" stroke-width="0.525238"/>
<path d="M59.4288 26.0984C59.4288 26.0984 58.6109 26.2853 58.294 26.5002C57.9661 26.7227 57.6339 27.3673 57.3872 27.6673C57.0958 28.0217 57.1736 28.566 57 29.0002" stroke="#63827B" stroke-width="0.525238"/>
<path d="M58.713 30.2326C58.713 30.2326 58.7558 29.9093 58.8327 29.7256C58.9225 29.5109 59.0171 29.4161 59.1627 29.2388C59.2859 29.0886 59.3462 28.9927 59.5075 28.8794C59.6634 28.7699 59.9612 28.67 59.9612 28.67" stroke="#63827B" stroke-width="0.525238"/>
<path d="M60.5 30.5C60.5 30.5 62.5334 31.1016 63.8425 31.198C65.0967 31.2904 65.7956 31.1493 67.0402 31.0188C68.3343 30.8831 70.339 30.5041 70.339 30.5041L73.4749 29.6929" stroke="#63827B" stroke-width="0.525238"/>
<path d="M55.5 16.5C55.5 16.5 56.9242 17.8854 57.7114 18.8652C58.6133 19.9876 59.2614 21.0348 59.9602 22.2739C60.6593 23.5137 61.0101 24.2365 61.4925 25.5609C61.9307 26.7636 62.1051 27.9626 62.3632 29.2087C62.5364 30.0451 62.5 31 62.5 31" stroke="#63827B" stroke-width="0.525238"/>
<path d="M57.7886 15.9657C57.7886 15.9657 59.2128 17.4501 60 18.4999C60.9019 19.7025 61.8589 20.6959 62.7488 22.295C63.4782 23.6055 63.7984 24.3966 64.2811 25.8167C64.7189 27.1046 64.8936 27.8543 65.1518 29.1894C65.325 30.0855 65.5 31.4999 65.5 31.4999" stroke="#63827B" stroke-width="0.525238"/>
<path d="M65.5 16.5L66.4113 17.4425C66.4113 17.4425 67.137 18.2371 67.537 18.7963C67.899 19.3023 68.0928 19.5966 68.3769 20.1501C68.6195 20.6229 68.7047 20.9121 68.9129 21.401C69.3867 22.5133 69.7392 23.1048 70.1118 24.2547C70.4775 25.3836 70.5471 26.0549 70.8059 27.213C71.092 28.4934 71.5 30.5 71.5 30.5" stroke="#63827B" stroke-width="0.525238"/>
<path d="M73.5 29.5C73.4877 29.4644 73.1617 27.9185 73.1617 27.9185L72 22.5" stroke="#63827B" stroke-width="0.525238"/>
<path d="M61.5 15.5L62.7344 16.5868L64.1231 18.2969L65.2717 20.1669C65.2717 20.1669 65.8117 21.2899 66.0775 22.0368C66.1581 22.2631 67.0008 24.3643 67.4434 25.9034C68.0052 27.8569 68.5 31 68.5 31" stroke="#63827B" stroke-width="0.525238"/>
<path d="M13.2368 19.9439C13.2368 19.9439 13.0049 19.8979 12.8684 19.9439C12.5632 20.0467 12.5 20.6887 12.5 20.6887C12.5 20.6887 12.1379 21.8653 11.7632 22.5508C11.5122 23.0098 11.0263 23.6681 11.0263 23.6681L9.92105 24.4134H9.18421L8.44737 24.4129L7.71053 23.6681C7.71053 23.6681 7.13179 23.0503 6.97368 22.5508C6.79828 21.9967 6.97368 21.0611 6.97368 21.0611L7.3421 19.9443L7.71053 18.8266C7.71053 18.8266 8.17058 17.4134 8.81579 16.592C9.70154 15.4645 10.26 14.8553 11.3947 13.9851C12.5749 13.0801 13.6882 12.6385 15.0789 12.1229C16.4565 11.6123 17.3115 11.5941 18.7632 11.3781C20.3354 11.1441 22.8158 11.0057 22.8158 11.0057H26.1316L28.3421 11.3781L30.1842 12.4954L30.921 13.2404L31.6579 14.7299V16.592L31.2895 17.7095L30.921 18.4542L28.7105 20.6887L25.7631 22.5508L21.7105 24.4129H20.2368C19.6613 24.4129 20.1735 25.4914 20.6053 25.9026C21.2422 26.5094 22.8158 25.5302 22.8158 25.5302C22.8158 25.5302 23.9131 25.0014 24.6579 24.7854C25.4991 24.5414 25.9937 24.3844 26.8684 24.4129C27.6017 24.4369 28.0187 24.5385 28.7105 24.7854C29.3173 25.0018 29.6638 25.1476 30.1842 25.5302C30.6779 25.8932 30.9062 26.1673 31.2895 26.6476C31.6151 27.0558 31.8025 27.2917 32.0263 27.7648C32.2226 28.1797 32.3133 28.4295 32.3947 28.882C32.4977 29.4544 32.4743 29.7956 32.3947 30.3717C32.2433 31.4688 31.8603 32.0332 31.2895 32.9787C30.7121 33.9351 30.2547 34.3974 29.4798 35.1806L29.4474 35.2134C28.6528 36.0166 27.2368 37.0754 27.2368 37.0754L24.2895 38.5651C24.2895 38.5651 23.3684 38.9954 22.0789 39.3101C21.5023 39.4508 19.5 39.6823 19.5 39.6823C19.5 39.6823 18.6782 39.7084 18.1788 39.5702C17.6496 39.4238 17.33 39.3101 16.8234 38.9375C16.3167 38.5649 16.1497 38.0296 15.7181 37.4478C15.7181 37.4478 15.4474 36.767 15.4474 36.3307C15.4474 35.8944 15.7181 35.0928 15.7181 35.0928C15.7181 35.0928 16.219 34.1252 16.5526 33.7237C16.8144 33.4087 17.0277 33.2938 17.2895 32.9789C17.6231 32.5773 17.6579 32.234 17.6579 32.234V31.8614C17.0992 31.5387 16.7024 32.1079 16.2102 32.6054C16.2102 32.6054 15.7181 33.1029 15.4734 33.7228C15.2287 34.3428 14.7105 34.8441 14.7105 35.5857C14.7105 36.3273 14.7754 36.7727 15.0789 37.4478C15.2936 37.9252 15.4901 38.157 15.8158 38.5652L15.8469 38.6042C16.2113 39.0612 16.4335 39.3399 16.921 39.6823C17.5573 40.1293 18.0013 40.2846 18.7632 40.4272C19.4705 40.5596 19.8879 40.4813 20.6053 40.4272C21.478 40.3614 21.9629 40.2533 22.8158 40.0548C24.1459 39.7452 24.8801 39.4883 26.1316 38.9375C27.4897 38.3398 28.331 37.6873 29.4474 36.7031C30.2943 35.9565 30.6191 35.7525 31.2895 34.8408C31.9084 33.9991 32.327 33.5579 32.7631 32.6063C33.2035 31.6456 33.5023 31.0581 33.5 29.9993C33.4983 29.2577 33.3882 28.832 33.1316 28.1372C32.8381 27.3427 32.0263 26.2751 32.0263 26.2751C32.0263 26.2751 31.1996 25.2846 30.5526 24.7854C29.4262 23.9162 27.2368 23.2957 27.2368 23.2957L29.8158 21.4336C29.8158 21.4336 30.846 20.5166 31.2895 19.944C31.7671 19.3273 32.3947 18.4543 32.3947 18.4543C32.3947 18.4543 32.6344 18.0996 32.7631 17.7093C32.8918 17.3191 32.871 16.2198 32.7631 15.4748C32.6772 14.8814 32.3947 13.9852 32.3947 13.9852C32.3947 13.9852 32.0241 13.0301 31.6579 12.4954C31.1946 11.8189 30.8449 11.4861 30.1842 11.0057C29.2947 10.3589 28.6593 10.1912 27.6053 9.8884C26.0766 9.44926 25.1402 9.58885 23.5526 9.51621C21.9716 9.44386 21.0605 9.6218 19.5 9.88878C18.4909 10.0614 18.0668 9.94937 16.921 10.2608C15.7753 10.5722 15.0883 10.595 13.9737 11.0061C12.7648 11.452 12.0671 11.7306 11.0263 12.4958C10.039 13.2216 9.26893 13.8175 8.44737 14.7303C7.69116 15.5706 7.40532 15.9464 6.97368 16.9645L5.86842 19.5714C5.86842 19.5714 5.5 20.6919 5.5 21.4336C5.5 22.1752 5.56484 22.6205 5.86842 23.2957C6.08308 23.7731 6.2263 24.0548 6.60526 24.4129C7.07531 24.8571 7.45083 25.0167 8.07895 25.1578C8.64075 25.284 8.9864 25.2619 9.55263 25.1578C10.0003 25.0755 10.6579 24.7854 10.6579 24.7854C10.6579 24.7854 12.0684 24.0229 12.5 23.2957L13.6053 21.4336C14.0369 20.7063 13.6053 20.3163 13.6053 20.3163L13.2368 19.9439Z" fill="#63827B" stroke="#63827B" stroke-width="1.30918"/>
<path d="M19.5 12.5L18.2063 13.1572L14.9723 23.6716L13.0316 30.2432C13.0316 30.2432 11.721 34.0458 10.4445 36.1576C9.78352 37.251 8.50398 38.7862 8.50398 38.7862C8.50398 38.7862 7.7617 39.3189 7.2103 39.4433C6.71712 39.5547 6.40981 39.5547 5.91663 39.4433C5.36524 39.3189 5.05161 39.1596 4.62275 38.7862C4.06358 38.2993 3.70148 37.833 3.67699 36.9953C3.65249 36.1576 3.97612 35.1718 3.97612 35.1718C4.29933 34.5147 4.52668 34.1438 4.94637 33.5289C5.50854 32.7054 6.45262 31.5235 6.45262 31.5235C6.45262 31.5235 5.30339 32.0303 4.62296 32.5432C4.04916 32.9757 3.65261 33.5289 3.32913 34.1861C3.00566 34.8433 2.68222 35.829 2.68222 35.829C2.68222 35.829 2.27207 37.191 2.68245 38.129C3.04517 38.9582 3.54058 39.2937 4.29954 39.7719C4.87754 40.1361 5.24536 40.3177 5.91663 40.4291C6.41524 40.5118 6.71593 40.5348 7.2103 40.4291C8.10155 40.2384 8.44164 40.0242 9.15061 39.4433C9.98485 38.7598 10.4345 38.0036 11.0913 37.1433C11.8883 36.0994 12.1115 35.3598 12.7084 34.1861C15.8804 27.9495 19.5 12.5 19.5 12.5Z" fill="#63827B" stroke="#63827B" stroke-width="1.30918"/>
<path d="M43.2235 28.4885C43.2235 28.4885 44.5939 27.8042 43.8545 29.4769L41.9614 33.7603C41.9614 33.7603 41.1737 35.5164 41.0148 36.7257C40.8975 37.6181 40.7166 38.187 41.0148 39.0322C41.11 39.3022 41.1355 39.4877 41.3303 39.6912C41.6058 39.9789 41.8872 40.0206 42.2769 40.0206C42.828 40.0206 43.539 39.3617 43.539 39.3617C43.539 39.3617 44.3687 38.2551 44.4856 38.7027C44.518 38.8268 44.4856 39.0322 44.4856 39.0322C44.4856 39.0322 44.395 39.2656 44.3813 39.3935C44.2942 40.2124 43.5588 40.4726 42.8037 40.7115C42.2141 40.8981 41.9105 40.896 41.3303 40.6796C40.9119 40.5236 40.649 40.3928 40.3837 40.0206C40.0804 39.595 40.1363 39.2284 40.0682 38.7027C39.9188 37.548 40.3837 35.7373 40.3837 35.7373C40.3837 35.7373 39.3819 37.4847 38.4906 38.3732C37.7238 39.1375 37.1754 39.7546 36.2819 40.3501C35.4445 40.9083 35.0426 41.1116 34.0732 41.3386C33.3518 41.5076 32.8772 41.5956 32.18 41.3386C31.9202 41.2428 31.549 41.0091 31.549 41.0091C31.549 41.0091 31.4388 40.5803 31.549 40.3501C31.6269 40.1874 31.8645 40.0206 31.8645 40.0206C31.8645 40.0206 32.429 40.2703 32.8111 40.3501C33.4152 40.4763 34.3887 40.3501 34.3887 40.3501C34.3887 40.3501 36.2274 39.2921 37.2285 38.3732C38.2122 37.4701 39.4372 35.7373 39.4372 35.7373L38.4906 36.0668C38.4906 36.0668 37.5106 36.2228 36.9129 36.0668C36.3783 35.9272 35.9876 35.8633 35.6508 35.4078C35.3404 34.9878 35.3353 34.0898 35.3353 34.0898C35.3353 34.0898 35.3687 32.6442 35.6508 31.7834C36.1618 30.2243 36.5456 29.401 37.8595 28.4885C38.6409 27.9458 39.4453 27.5 40.3837 27.5C41.3222 27.5 42.5924 28.818 42.5924 28.818C42.8389 28.818 42.977 28.4885 43.2235 28.4885Z" fill="#63827B" stroke="#63827B" stroke-width="0.981885"/>
<path d="M41.2456 28.778C41.4645 29.0131 41.4725 29.2542 41.4963 29.5858C41.5272 30.0181 41.3579 30.2464 41.2456 30.6628C41.0129 31.5258 40.8081 32.0294 40.2648 32.7574C39.7215 33.4854 39.6551 33.4752 39.6551 33.4752C39.6551 33.4752 38.7635 34.4948 38.2376 34.4577C37.9287 34.4359 37.5663 34.6015 37.216 34.3949C36.8397 34.173 36.7976 33.7311 36.6063 33.4124C36.2837 32.8748 36.7788 32.0708 36.9847 31.4706C37.2758 30.6218 37.6253 30.2064 38.2379 29.5858C38.594 29.2251 39.2405 28.778 39.2405 28.778C39.2405 28.778 39.9985 28.4422 40.4937 28.5087C40.8008 28.55 41.0268 28.5429 41.2456 28.778Z" fill="#F5F5F5" stroke="#63827B" stroke-width="0.981885"/>
<path d="M80.521 22.8867C80.4743 22.4326 79.8633 21.9141 79.8633 21.9141C79.8633 21.9141 79.4948 21.3194 79.5345 20.9416C79.618 20.1452 79.476 20.0245 79.8633 19.3208C80.3105 18.5082 81.1784 17.7 81.1784 17.7C81.1784 17.7 83.4798 15.755 84.4661 15.1066C85.4524 14.4583 85.8688 14.3873 86.7675 14.1342C87.6663 13.881 87.7884 13.9806 88.4112 14.1341C88.9683 14.2714 89.3754 14.6585 89.7263 15.1066C90.0497 15.5198 90.0552 16.0792 90.0552 16.0792C90.0552 16.0792 90.315 17.2571 90.3839 18.0242C90.5317 19.6683 90.0552 22.2383 90.0552 22.2383L88.0826 29.37C88.0826 29.37 86.7695 33.2124 85.4524 35.205C84.6531 36.4143 84.4923 37.2198 83.1511 37.7984C82.5514 38.0571 82.1597 38.1763 81.5073 38.1225C80.8183 38.0657 80.3524 37.9563 79.8635 37.4742C79.3746 36.9921 79.0665 36.509 78.8772 35.8533C78.6315 35.0027 78.7222 34.4792 78.8718 33.6157L78.8772 33.5842C79.0222 32.7471 79.2122 31.9874 79.5973 31.2279C80.1109 30.2151 80.5875 29.8897 81.2412 28.9587C82.068 27.7811 83.8087 26.4525 83.8087 26.4525H83.4799L81.8361 27.425C81.8361 27.425 79.9916 28.5938 79.206 29.6942C78.7102 30.3886 78.4893 30.8326 78.2197 31.6392C77.8159 32.8475 77.7752 33.6137 77.8909 34.8809C77.9859 35.9206 78.0074 36.5769 78.5485 37.4742C79.0124 38.2436 79.3803 38.6947 80.1923 39.095C81.0043 39.4954 81.5967 39.5578 82.4936 39.4192C83.1767 39.3136 83.5505 39.1312 84.1374 38.7709C85.1422 38.1539 85.4329 37.4591 86.11 36.5017C87.0953 35.1086 88.0826 32.6117 88.0826 32.6117C88.0826 32.6117 89.038 30.4024 89.5508 28.9587C90.0757 27.4808 90.7127 25.1558 90.7127 25.1558L91.3702 24.5075L93.3428 22.8867L96.9592 18.8635L96.6304 19.645L94.6578 25.8042L92.3565 34.8809C92.3565 34.8809 91.1134 39.0394 91.3702 39.4192L92.0277 40.3917C92.2845 40.7715 92.7572 40.1078 93.014 39.095L93.6715 36.5017L96.6304 31.9634L100.576 26.4525C100.576 26.4525 99.8161 28.5924 99.5893 30.0184C99.2709 32.0194 98.9294 33.206 99.2604 35.205C99.431 36.2353 99.6784 36.9176 100.247 37.7984C100.637 38.4025 100.954 38.7038 101.562 39.095C102.141 39.4675 102.52 39.6586 103.206 39.7434C103.969 39.8377 104.427 39.6791 105.144 39.4309L105.178 39.4192C105.72 39.2318 106.029 39.1039 106.493 38.7709C106.934 38.455 107.131 38.2113 107.48 37.7984C108.142 37.0137 108.795 35.5292 108.795 35.5292L107.808 36.8258C107.808 36.8258 106.656 38.0635 105.836 38.4467C105.357 38.6702 104.521 38.7709 104.521 38.7709C104.521 38.7709 103.486 38.971 102.877 38.7709C102.268 38.5707 101.906 38.3326 101.562 37.7983C101.211 37.2535 101.037 37.1337 100.904 36.5017C100.663 35.359 100.668 34.7478 100.576 33.5842C100.465 32.1902 100.702 31.0782 100.904 29.6942C101.166 27.9001 101.891 25.1558 101.891 25.1558C101.891 25.1558 102.81 22.7483 103.534 21.2658C104.634 19.0167 105.043 17.2076 106.822 15.4308C107.526 14.7272 107.828 14.3961 108.795 14.1342C109.414 13.9665 109.839 13.9069 110.438 14.1342C111.116 14.3912 111.611 14.7286 111.753 15.4308C111.804 15.6791 111.753 16.0791 111.753 16.0791L111.753 16.7275C111.754 17.1839 111.499 17.2495 111.425 17.7C111.279 18.5835 111.873 19.5877 112.74 19.3208C113.04 19.2285 113.397 18.6725 113.397 18.6725C113.397 18.6725 113.629 17.5298 113.397 16.7275C113.24 16.1829 112.74 15.4308 112.74 15.4308C112.74 15.4308 112.079 13.9493 111.096 13.4858C110.73 13.3131 109.781 13.1617 109.781 13.1617C109.781 13.1617 108.75 13.2592 108.137 13.4858C107.27 13.8064 106.861 14.1813 106.165 14.7825C104.771 15.9848 103.534 18.6725 103.534 18.6725L101.233 23.535L99.918 25.8042L93.6715 34.2325L95.3154 27.1009C95.3154 27.1009 96.653 22.4521 97.9455 19.645C98.8477 17.6854 99.5888 16.7021 100.576 14.7825C100.835 14.2775 101.336 14.0428 101.233 13.4858C101.136 12.9574 100.786 12.5893 100.247 12.5133C99.8449 12.4567 99.5743 12.5835 99.2605 12.8375C98.8337 13.1829 98.9352 13.6244 98.7415 14.1342C98.5502 14.6374 98.4892 14.937 98.2742 15.4308C97.4435 17.3388 95.3152 19.645 95.3152 19.645C95.3152 19.645 93.6715 21.59 92.3565 22.5625C91.0415 23.535 91.0414 22.8867 91.0414 22.8867C91.0414 22.8867 92.0683 19.7085 91.699 17.7C91.4523 16.3584 91.3194 15.4624 90.3839 14.4583C89.7576 13.7861 89.2986 13.4223 88.4113 13.1617C87.55 12.9087 86.9919 12.991 86.11 13.1617C85.1505 13.3473 84.5985 13.5335 83.746 14.0057C81.9238 15.015 79.5346 17.3758 79.5346 17.3758C79.5346 17.3758 77.0826 20.1058 77.5622 21.9142C77.7074 22.4619 78.2197 22.8867 78.2197 22.8867L79.5347 23.2108C79.5347 23.2108 80.562 23.285 80.521 22.8867Z" fill="#63827B" stroke="#63827B" stroke-width="0.981885"/>
<path d="M123.346 36.5112C122.617 36.5497 121.5 36.7584 121.5 36.7584V37.5C121.5 37.5 122.678 37.1021 123.038 37.0056L123.962 36.7584H125.5L124.577 36.5112C124.577 36.5112 123.826 36.486 123.346 36.5112Z" fill="#748E88" stroke="#8DB19F" stroke-width="0.981885"/>
<path d="M111.164 29.7585C111.164 29.7585 111.331 30.007 111.497 30.084C111.92 30.2801 112.495 29.4331 112.495 29.4331C112.495 29.4331 112.879 29.0134 113.16 28.7822C113.519 28.4875 113.694 28.1882 114.159 28.1314C114.288 28.1156 114.491 28.1314 114.491 28.1314L114.824 28.4568C114.824 28.4568 115.107 29.3777 115.089 29.7585C114.944 32.8265 112.039 33.5082 111.762 36.918C111.72 37.4404 111.83 37.8943 111.83 37.8943C111.83 37.8943 111.93 38.3747 112.162 38.5452C112.474 38.774 112.774 38.5979 113.16 38.5452C114.198 38.4036 115.489 37.2435 115.489 37.2435L119.815 32.0366L122.144 29.4331L121.479 33.0128L120.813 37.5689L118.484 38.5452L114.491 40.4978C114.491 40.4978 112.201 42.2156 110.831 43.4267C108.581 45.416 105.508 48.959 105.508 48.959C105.508 48.959 103.782 50.5643 103.179 51.8879C102.743 52.8452 102.431 53.4465 102.513 54.4914C102.576 55.2928 102.648 55.8304 103.179 56.444C103.818 57.1829 104.532 57.2567 105.508 57.4203C106.667 57.6149 107.378 57.4328 108.502 57.0949C109.951 56.6596 110.605 56.0151 111.83 55.1423C113.242 54.1353 113.976 53.4742 115.157 52.2134C116.861 50.3938 117.613 49.1751 118.817 47.0064C120.406 44.1436 121.811 39.1961 121.811 39.1961L122.477 35.2909L123.475 28.4568C123.475 28.4568 123.636 27.2617 123.142 26.8296C122.926 26.6401 122.766 26.5348 122.477 26.5042C121.723 26.4243 121.881 27.5037 121.479 28.1314C119.655 30.9734 116.155 34.9654 116.155 34.9654L114.159 36.918L113.16 37.5689C113.03 37.4418 112.828 37.6247 112.828 37.2435V36.2672C112.792 35.6121 115.167 31.8848 115.822 30.084C116.087 29.3557 116.464 28.8429 116.155 28.1314C115.939 27.6351 115.669 27.3553 115.157 27.1551C114.674 26.9663 113.826 27.1551 113.826 27.1551C113.826 27.1551 113.192 27.5183 112.828 27.8059C112.038 28.429 111.164 29.7585 111.164 29.7585Z" fill="#8DB19F" stroke="#8DB19F" stroke-width="0.981885"/>
<path d="M113.299 42.0153C115.566 40.4158 119.487 38.5 119.487 38.5C119.487 38.5 119.516 39.2799 119.487 39.7783C119.339 42.3012 117.207 45.8502 117.207 45.8502C117.207 45.8502 114.865 50.5254 112.322 52.5613C110.426 54.0788 109.208 55.0993 106.785 55.4375C105.778 55.5781 104.18 55.4375 104.18 55.4375C104.18 55.4375 103.621 54.5055 103.529 53.8396C103.387 52.8199 103.798 52.2414 104.18 51.283C105.07 49.0504 108.088 46.4894 108.088 46.4894C108.088 46.4894 111.104 43.5643 113.299 42.0153Z" fill="#F5F5F5" stroke="#8DB19F" stroke-width="0.981885"/>
</svg>
