<svg width="60" height="50" viewBox="0 0 60 50" fill="none" xmlns="http://www.w3.org/2000/svg">
<ellipse cx="30" cy="25" rx="30" ry="25" fill="#63827B"/>
<path d="M22.2223 18.6258C22.2223 18.6258 22.1334 18.2842 22.0718 18.0666C21.9241 17.5452 21.7613 17.2747 21.6524 16.7438C21.5236 16.1165 21.5178 15.7495 21.5233 15.1092C21.5283 14.5316 21.5461 14.2035 21.6524 13.6358C21.7871 12.9165 21.9495 12.5297 22.2223 11.8506C22.4227 11.352 22.5369 11.0699 22.8031 10.6031C23.2349 9.84562 23.5502 9.45367 24.1581 8.82863C24.7577 8.21219 25.1252 7.87438 25.8681 7.44132C26.5089 7.06776 26.91 6.92116 27.621 6.71002C28.3333 6.49852 28.753 6.43991 29.4923 6.36588C30.3908 6.27592 30.9129 6.2227 31.8045 6.36588C32.4908 6.47611 33.5144 6.86058 33.5144 6.86058C33.5144 6.86058 34.318 7.16849 34.7942 7.44132C35.2907 7.72576 35.5474 7.92574 35.9879 8.29091C36.5458 8.75335 37.2999 9.60294 37.2999 9.60294L37.5519 9.9717L37.8574 10.5827L38.1388 10.9257L38.3216 11.2591C38.3216 11.2591 38.573 11.8279 38.698 12.2055C38.8718 12.7306 39.0314 13.582 39.0314 13.582C39.0314 13.582 39.1777 14.622 39.1712 15.292C39.1654 15.8908 39.1404 16.2303 39.0314 16.8191C38.8995 17.5311 38.7773 17.9274 38.4937 18.5936C38.2108 19.2579 38.0048 19.6155 37.5903 20.2067C37.1936 20.7726 36.9412 21.0757 36.4396 21.551C35.9329 22.0312 35.6139 22.2703 35.02 22.6372C34.5039 22.9561 34.1958 23.1104 33.6327 23.3362C33.0346 23.5761 32.684 23.6842 32.0518 23.8094C31.3036 23.9576 30.8674 24.0017 30.1053 23.9707C29.5936 23.9499 29.3072 23.9042 28.804 23.8094C27.9683 23.6521 27.4972 23.5255 26.7177 23.1857C26.0453 22.8926 25.6778 22.69 25.083 22.2608C24.5761 21.8951 24.3138 21.6555 23.8785 21.2069C23.4966 20.8132 22.9751 20.1314 22.9751 20.1314" stroke="white" stroke-width="0.354545"/>
<path d="M22.985 20.138L22.2114 18.6255C22.2114 18.6255 22.7286 19.2612 23.1158 19.6123C23.5823 20.0354 24.4233 20.5563 24.4233 20.5563C24.4233 20.5563 25.4553 21.1911 26.1557 21.5217C26.8623 21.8553 28.0189 22.2511 28.0189 22.2511C28.0189 22.2511 28.9594 22.5297 29.577 22.6373C30.1672 22.7401 30.5043 22.7651 31.1024 22.7982C31.7652 22.8348 32.1394 22.8352 32.8022 22.7982C33.3402 22.7681 33.6436 22.7482 34.1751 22.6587C34.6835 22.5731 34.967 22.5069 35.4608 22.3584" stroke="white" stroke-width="0.354545"/>
<path d="M21.6309 16.561C21.6309 16.561 22.5212 17.5855 23.1816 18.1454C23.8688 18.728 25.077 19.4603 25.077 19.4603C25.077 19.4603 26.2231 20.1713 27.0154 20.5058C27.8034 20.8385 28.2694 20.9791 29.1047 21.1633C29.9249 21.3441 30.3992 21.3841 31.237 21.4435C32.227 21.5137 32.7893 21.5252 33.7785 21.4435C34.5325 21.3812 34.959 21.3366 35.6954 21.1633C36.3131 21.0179 36.6558 20.9108 37.2462 20.6783" stroke="white" stroke-width="0.354545"/>
<path d="M21.5229 14.9263C21.5229 14.9263 22.4808 15.93 23.1912 16.4786C23.9304 17.0493 25.2302 17.7668 25.2302 17.7668C25.2302 17.7668 26.4631 18.4634 27.3155 18.7911C28.1631 19.1171 28.6644 19.2549 29.563 19.4353C30.4453 19.6124 30.9556 19.6516 31.8568 19.7098C32.9218 19.7786 33.5268 19.7899 34.5909 19.7098C35.402 19.6488 35.8608 19.6051 36.653 19.4353C37.3175 19.2929 37.6861 19.1879 38.3212 18.9601" stroke="white" stroke-width="0.354545"/>
<path d="M21.7598 13.1841C21.7598 13.1841 22.7409 14.17 23.4686 14.7088C24.2258 15.2694 25.5572 15.9742 25.5572 15.9742C25.5572 15.9742 26.8201 16.6583 27.6932 16.9802C28.5615 17.3004 29.0749 17.4357 29.9954 17.6129C30.8991 17.7869 31.4218 17.8254 32.345 17.8826C33.436 17.9502 34.0556 17.9612 35.1456 17.8826C35.9764 17.8227 36.4464 17.7797 37.2579 17.6129C37.9385 17.4731 38.3161 17.3699 38.9667 17.1462" stroke="white" stroke-width="0.354545"/>
<path d="M25.6096 7.5918C25.6096 7.5918 26.5665 8.71365 27.1086 9.48546C27.5299 10.0853 27.7524 10.4326 28.1181 11.068C28.5803 11.8712 28.8496 12.3241 29.1812 13.1894C29.4843 13.9804 29.5523 14.4584 29.7719 15.2765C29.8883 15.7101 30.0619 16.3889 30.0619 16.3889L29.4175 16.2398C29.4175 16.2398 28.4318 15.8946 27.8281 15.6091C26.7475 15.098 26.2011 14.688 25.2292 13.9922C24.7614 13.6573 24.4832 13.4859 24.0586 13.0977C23.6121 12.6895 23.4361 12.3872 23.0169 11.951C22.7898 11.7146 22.4263 11.3547 22.4263 11.3547" stroke="white" stroke-width="0.354545"/>
<path d="M23.5799 12.5964C23.5799 12.5964 23.6604 11.8596 23.8248 11.4202C24.0262 10.8819 24.2188 10.6022 24.5883 10.162C24.9229 9.76341 25.1264 9.52835 25.5777 9.26935C25.9503 9.05559 26.6126 8.89688 26.6126 8.89688" stroke="white" stroke-width="0.354545"/>
<path d="M24.3971 13.3925C24.3971 13.3925 24.5608 12.6916 24.7604 12.2808C24.9936 11.8008 25.208 11.5757 25.5455 11.1623C25.8311 10.8123 25.9763 10.5931 26.3305 10.3127C26.6728 10.0417 27.3008 9.75754 27.3008 9.75754" stroke="white" stroke-width="0.354545"/>
<path d="M25.3517 14.0873C25.3517 14.0873 25.487 13.4459 25.6629 13.0726C25.8685 12.6364 26.0627 12.4345 26.367 12.0621C26.6246 11.7469 26.7545 11.5487 27.0777 11.2992C27.39 11.0581 27.9681 10.8119 27.9681 10.8119" stroke="white" stroke-width="0.354545"/>
<path d="M26.3194 14.7754C26.3194 14.7754 26.5117 14.2823 26.688 13.9797C26.8941 13.6262 27.0551 13.4466 27.3163 13.1242C27.5374 12.8513 27.6553 12.6847 27.9093 12.4496C28.1548 12.2224 28.5773 11.9488 28.5773 11.9488" stroke="white" stroke-width="0.354545"/>
<path d="M27.4597 15.4426C27.4597 15.4426 27.6139 15.0619 27.7527 14.8273C27.9148 14.5532 28.0399 14.4131 28.2433 14.1618C28.4155 13.9491 28.5076 13.8197 28.7041 13.6354C28.8939 13.4572 29.2187 13.2406 29.2187 13.2406" stroke="white" stroke-width="0.354545"/>
<path d="M28.6589 15.9717C28.6589 15.9717 28.7313 15.751 28.8039 15.6179C28.8887 15.4625 28.959 15.3858 29.0717 15.2471C29.1671 15.1297 29.2171 15.0573 29.3299 14.9587C29.439 14.8635 29.6316 14.7541 29.6316 14.7541" stroke="white" stroke-width="0.354545"/>
<path d="M30.1689 16.3779C30.1689 16.3779 31.5667 16.6135 32.471 16.636C33.3374 16.6576 33.8233 16.5842 34.6864 16.507C35.5841 16.4267 36.9771 16.2273 36.9771 16.2273L39.1596 15.8187" stroke="white" stroke-width="0.354545"/>
<path d="M27.2876 6.81738C27.2876 6.81738 28.2022 7.7837 28.7078 8.46711C29.2869 9.24999 29.5674 9.72567 30.0161 10.5899C30.4651 11.4546 30.6903 11.9588 31.0001 12.8826C31.2815 13.7214 31.3935 14.209 31.5593 15.0782C31.6705 15.6615 31.7829 16.5823 31.7829 16.5823" stroke="white" stroke-width="0.354545"/>
<path d="M29.0083 6.43018C29.0083 6.43018 29.9404 7.43693 30.4556 8.14895C31.0459 8.96458 31.3317 9.46017 31.789 10.3606C32.2466 11.2615 32.4761 11.7868 32.7919 12.7492C33.0787 13.6232 33.1928 14.1312 33.3617 15.0367C33.4751 15.6444 33.5897 16.6038 33.5897 16.6038" stroke="white" stroke-width="0.354545"/>
<path d="M33.1807 6.75293L33.7608 7.38642C33.7608 7.38642 34.2412 7.95178 34.4774 8.29634C34.7136 8.6409 35.012 9.20626 35.012 9.20626L35.3532 10.0471L35.5466 10.646" stroke="white" stroke-width="0.354545"/>
<path d="M35.9341 8.2583C36.0268 8.35944 36.1714 8.5173 36.1714 8.5173L36.4646 8.88931C36.4646 8.88931 36.6166 9.11075 36.6833 9.26132C36.7439 9.39805 36.8229 9.60508 36.8229 9.60508C36.8229 9.60508 36.8711 9.75432 36.902 9.84994" stroke="white" stroke-width="0.354545"/>
<path d="M31.0625 6.29053C31.0625 6.29053 31.5553 6.71566 31.8368 7.02182C32.2183 7.4367 32.3971 7.70238 32.7079 8.17254C33.0202 8.64488 33.1828 8.9206 33.4285 9.4308C33.6582 9.90792 33.7671 10.1865 33.9339 10.6891C34.0386 11.0044 34.1705 11.5064 34.1705 11.5064" stroke="white" stroke-width="0.354545"/>
<path d="M34.6758 13.0956C34.6758 13.0956 34.9723 14.0851 35.1062 14.7324C35.2419 15.3889 35.3627 16.4298 35.3627 16.4298" stroke="white" stroke-width="0.0645261"/>
<path d="M34.6758 13.0956C34.6758 13.0956 34.9723 14.0851 35.1062 14.7324C35.2419 15.3889 35.3627 16.4298 35.3627 16.4298" stroke="white" stroke-width="0.0645261"/>
<path d="M34.6758 13.0956C34.6758 13.0956 34.9723 14.0851 35.1062 14.7324C35.2419 15.3889 35.3627 16.4298 35.3627 16.4298" stroke="white" stroke-width="0.354545"/>
<path d="M36.1275 12.17C36.3158 12.9519 36.6096 14.1721 36.6096 14.1721L36.9641 16.2305" stroke="white" stroke-width="0.354545"/>
<path d="M37.4825 11.3341C37.8287 12.164 38.1344 13.4757 38.1344 13.4757L38.3484 14.7559L38.4321 15.9431" stroke="white" stroke-width="0.354545"/>
<path d="M33.6241 11.8761L33.6673 11.841L33.6994 11.8174L33.7182 11.8015L33.7419 11.7853L33.759 11.7754L33.7655 11.7691L33.7773 11.7674L33.7865 11.757L33.7968 11.7485L33.8246 11.735L33.833 11.7276L33.8428 11.727L33.8524 11.7215L33.8649 11.7168L33.879 11.7061L33.9052 11.6986L33.9224 11.6887L33.9406 11.6807L33.9455 11.6804L33.96 11.6746L33.9793 11.6685L33.9997 11.6643L34.0194 11.6631L34.0478 11.6595L34.0674 11.6583L34.0843 11.6612L34.0952 11.6625L34.1111 11.6636L34.1239 11.6638L34.134 11.6681L34.1521 11.6729L34.1947 11.694L34.2081 11.7041L34.2188 11.7182L34.2336 11.7351L34.2361 11.7438L34.2479 11.7598L34.2559 11.7781L34.2609 11.7955L34.2681 11.8168L34.2703 11.8206L34.2658 11.8435L34.2689 11.8621L34.2706 11.8738L34.2681 11.8828L34.2674 11.9035L34.2623 11.9167L34.264 11.9284L34.2627 11.9393L34.2548 11.9565L34.2524 11.9656L34.2527 11.9705L34.2473 11.9787L34.2384 12.0117L34.2303 12.024L34.2271 12.0361L34.2181 12.0514L34.2141 12.0664L34.2057 12.0738L34.193 12.1091L34.18 12.1217L34.171 12.137L34.1613 12.1553L34.1543 12.1696L34.1404 12.1852L34.1334 12.1994L34.1206 12.2169L34.1122 12.2243L34.106 12.2355L34.0979 12.2479L34.0878 12.2613L34.0767 12.2728L34.0694 12.2821L34.0555 12.2977L34.042 12.3182L34.0376 12.3283L34.0186 12.3393L34.0132 12.3476L33.999 12.3583L33.9876 12.3649L33.9874 12.3777L34.0011 12.3926L34.0063 12.3973L34.0197 12.4073L34.0285 12.4225L34.044 12.4186L34.0532 12.3905L34.0619 12.388L34.078 12.3762L34.0864 12.3688L34.0907 12.3587L34.104 12.351L34.1163 12.3414L34.1296 12.3337L34.1416 12.3192L34.1475 12.303L34.1627 12.2942L34.1712 12.2868L34.1828 12.2674L34.1885 12.2641L34.1936 12.251L34.2105 12.2362L34.2216 12.2247L34.2375 12.2257L34.244 12.2194L34.2581 12.2087L34.2669 12.2062L34.2805 12.2034L34.287 12.1971L34.2968 12.1965L34.3154 12.1934L34.3404 12.184L34.3552 12.1831L34.371 12.1841L34.3767 12.1808L34.3922 12.177L34.4021 12.1764L34.4198 12.1763L34.4345 12.1754L34.4458 12.1816L34.4619 12.1876L34.4796 12.1875L34.5018 12.195L34.5163 12.207L34.5395 12.2164L34.5431 12.227L34.5497 12.2385L34.562 12.2466L34.5667 12.2591L34.5815 12.276L34.5873 12.2904L34.5909 12.3011L34.598 12.3046L34.6071 12.3247L34.6145 12.3331L34.6106 12.3659L34.627 12.3768L34.6219 12.3899L34.628 12.4092L34.6203 12.4136L34.6332 12.4316L34.6338 12.4414L34.6295 12.4515L34.6241 12.4597L34.6291 12.4772L34.6368 12.4905L34.6275 12.5009L34.6194 12.5132L34.6227 12.5189L34.6212 12.5427L34.6158 12.5509L34.6158 12.5686L34.6194 12.5793L34.6162 12.5913L34.5972 12.6023L34.5937 12.6271L34.5843 12.6504L34.5781 12.6616L34.5726 12.6698L34.5653 12.6791L34.56 12.7051L34.5556 12.7152L34.5483 12.7245L34.5402 12.7368L34.5381 12.7507L34.5266 12.7573L34.5144 12.7669L34.5153 12.7817L34.508 12.791L34.4846 12.8121L34.4734 12.8236L34.4762 12.8372L34.4738 12.8462L34.4613 12.8509L34.4493 12.8655L34.4382 12.877L34.4181 12.8861L34.4194 12.8929L34.4045 12.9066L34.3945 12.92L34.3852 12.9304L34.3678 12.9354L34.3578 12.9488L34.3493 12.9562L34.3349 12.962L34.3306 12.9721L34.3207 12.9727L34.3085 12.9823L34.2944 12.993L34.29 13.0031L34.2775 13.0078L34.2579 13.009L34.2475 13.0175L34.2317 13.0165L34.2181 13.0193L34.2003 13.0194L34.1864 13.0173L34.1736 13.017L34.1627 13.0157L34.1507 13.0125L34.1323 13.0028L34.1121 12.9941L34.1058 12.9876L34.0894 12.9768L34.0828 12.9653L34.068 12.9485L34.0704 12.9395L34.0679 12.9307L34.0613 12.9193L34.0667 12.9111L34.0502 12.8825L34.0501 12.8648L34.0596 12.8415L34.0549 12.829L34.0524 12.8203L34.0578 12.8121L34.0766 12.7962L34.0653 12.7722L34.0699 12.767L34.0703 12.7413L34.0545 12.7403L34.045 12.7458L34.0346 12.7543L34.0273 12.7636L34.0225 12.7817L34.0181 12.7918L34.0051 12.8044L34.0098 12.8169L34.005 12.835L34.0028 12.8489L33.9996 12.8609L34.0071 12.8871L34.0088 12.8988L34.0119 12.9173L34.0276 12.9489L34.0369 12.9562L34.0427 12.9707L34.0507 12.9889L34.0665 12.99L34.072 12.9995L34.0859 13.0016L34.0925 13.013L34.1037 13.0193L34.1136 13.0187L34.1292 13.0325L34.1431 13.0346L34.1603 13.0425L34.1677 13.0509L34.1931 13.0464L34.2065 13.0565L34.2201 13.0537L34.23 13.0531L34.2466 13.0511L34.258 13.0445L34.2668 13.042L34.2986 13.0312L34.3112 13.0265L34.3158 13.0213L34.3463 13.0037L34.3648 13.0006L34.3732 12.9932L34.3939 12.9762L34.4072 12.9685L34.4249 12.9507L34.4409 12.9389L34.4475 12.9326L34.4722 12.9183L34.4757 12.9112L34.4855 12.8928L34.5007 12.884L34.502 12.8731L34.5143 12.8635L34.5199 12.8425L34.5322 12.8329L34.5504 12.8249L34.5579 12.8028L34.5745 12.783L34.5845 12.7696L34.5872 12.7655L34.5932 12.7494L34.5994 12.7382L34.6059 12.7319L34.6146 12.7294L34.6225 12.7121L34.6227 12.6993L34.6278 12.6862L34.6352 12.6769L34.6335 12.6652L34.6446 12.6536L34.6462 12.6476L34.6477 12.6239L34.6545 12.6048L34.6634 12.5894L34.6726 12.579L34.6677 12.5616L34.6698 12.5477L34.6689 12.5329L34.6691 12.5201L34.6739 12.5021L34.6775 12.495L34.6807 12.4829L34.6749 12.4685L34.6781 12.4565L34.6889 12.4401L34.6829 12.4207L34.6796 12.415L34.6757 12.3995L34.6811 12.3912L34.6717 12.3662L34.6689 12.3526L34.662 12.3362L34.6619 12.3185L34.6545 12.31L34.6498 12.2975L34.6386 12.2913L34.6336 12.2738L34.627 12.2624L34.6166 12.2532L34.613 12.2426L34.6026 12.2333L34.5908 12.2173L34.5747 12.2113L34.5651 12.1991L34.547 12.1943L34.5336 12.1842L34.5194 12.1772L34.5142 12.1726L34.5 12.1656L34.4811 12.1637L34.4729 12.1583L34.4492 12.1568L34.4372 12.1536L34.4243 12.1533L34.4074 12.1504L34.3987 12.1529L34.3796 12.1462L34.358 12.1485L34.3392 12.1466L34.3173 12.144L34.256 12.1566L34.2481 12.156L34.2532 12.1429L34.2679 12.1243L34.2768 12.109L34.277 12.0962L34.2846 12.0918L34.2865 12.0729L34.2938 12.0636L34.2962 12.0546L34.3054 12.0442L34.3075 12.0303L34.3157 12.0179L34.3096 11.9986L34.3188 11.9882L34.3209 11.9743L34.3266 11.9532L34.3333 11.9341L34.3335 11.9213L34.3357 11.9073L34.3329 11.8937L34.3304 11.885L34.3292 11.8653L34.3318 11.8435L34.3249 11.8272L34.3259 11.8113L34.3273 11.8004L34.3204 11.7841L34.3119 11.7737L34.3151 11.7617L34.3019 11.7388L34.2983 11.7282L34.2756 11.7109L34.275 11.701L34.2586 11.6902L34.252 11.6788L34.2303 11.6633L34.218 11.6552L34.2065 11.644L34.1934 11.6389L34.1841 11.6316L34.1712 11.6314L34.1488 11.6189L34.1259 11.6144L34.121 11.6147L34.101 11.6109L34.0803 11.6102L34.0653 11.6062L34.0557 11.6117L34.0404 11.6027L34.0219 11.6058L34.0071 11.6067L33.9954 11.6084L33.9807 11.6093L33.9651 11.6132L33.9515 11.616L33.9272 11.6224L33.9052 11.6325L33.8877 11.6375L33.8646 11.6458L33.8589 11.6491L33.833 11.6615L33.8098 11.6698L33.7908 11.6808L33.7764 11.6866L33.7413 11.7094L33.7317 11.7149L33.7043 11.7333L33.6776 11.7487L33.6607 11.7635L33.6485 11.7731L33.6313 11.783L33.6137 11.8008L33.593 11.8179L33.5835 11.8234L33.5713 11.833L33.5677 11.8401L33.5555 11.8497L33.5452 11.8582L33.5177 11.8766L33.4987 11.9053L33.4846 11.916L33.4645 11.9429L33.4408 11.9591L33.4363 11.982L33.4164 11.996L33.4176 12.0157L33.3956 12.0259L33.3627 12.0702L33.3688 12.0896L33.3517 12.0995L33.3493 12.1085L33.3346 12.1271L33.3369 12.1486L33.325 12.1632L33.3244 12.1711L33.3155 12.1864L33.3082 12.1957L33.2995 12.2159L33.3051 12.2432L33.2905 12.2618L33.2892 12.2727L33.2938 12.2853L33.2769 12.3484L33.2865 12.3606L33.2765 12.374L33.2799 12.3975L33.2709 12.4128L33.274 12.4313L33.2951 12.4547L33.2892 12.4708L33.2877 12.4946L33.3061 12.5221L33.2983 12.5393L33.3046 12.5458L33.3076 12.5644L33.3249 12.5722L33.3315 12.5836L33.3329 12.6082L33.3436 12.6223L33.356 12.6305L33.3669 12.6318L33.3754 12.6421L33.3864 12.6612L33.3973 12.6625L33.4167 12.6741L33.4216 12.6738L33.4484 12.6762L33.4686 12.6848L33.4875 12.6866L33.5057 12.6786L33.518 12.6868L33.5308 12.6692L33.5528 12.6591L33.5654 12.6544L33.5716 12.6431L33.5811 12.6376L33.5942 12.625L33.6069 12.6075L33.6172 12.5813L33.6386 12.5435L33.6404 12.5247L33.6408 12.499L33.638 12.4854L33.6429 12.4674L33.6406 12.4458L33.6391 12.4213L33.6366 12.4125L33.6343 12.391L33.6263 12.3727L33.6186 12.3594L33.6082 12.3502L33.5973 12.3489L33.587 12.3574L33.5843 12.3792L33.5904 12.3986L33.5949 12.4239L33.5942 12.4447L33.597 12.4583L33.599 12.4749L33.6023 12.4984L33.5981 12.5262L33.5892 12.5593L33.5773 12.5738L33.5689 12.5989L33.5532 12.6157L33.5333 12.6297L33.5023 12.6374L33.493 12.6479L33.4758 12.64L33.4468 12.6339L33.4274 12.6222L33.4129 12.6103L33.3951 12.5926L33.3863 12.5774L33.3761 12.5553L33.3722 12.5398L33.3691 12.5212L33.3575 12.4924L33.3577 12.4795L33.3547 12.461L33.3453 12.4359L33.3441 12.4163L33.3473 12.4043L33.3494 12.3904L33.3483 12.3707L33.3501 12.3519L33.3562 12.3229L33.3537 12.3142L33.3496 12.2938L33.3593 12.2754L33.3622 12.2585L33.3791 12.1954L33.3889 12.1771L33.3956 12.1579L33.4078 12.1306L33.4189 12.1191L33.4205 12.1131L33.4322 12.0936L33.4503 12.0679L33.472 12.0351L33.5171 11.9811L33.5448 11.9499L33.5839 11.912L33.6054 11.892L33.6241 11.8761ZM33.7218 11.9442L33.681 11.9703L33.6768 11.9981L33.6846 12.0292L33.6868 12.0508L33.6847 12.0647L33.6941 12.0897L33.704 12.1069L33.7001 12.1397L33.7045 12.1473L33.7103 12.1617L33.7202 12.1789L33.721 12.1936L33.7282 12.2148L33.7261 12.2288L33.7333 12.25L33.7334 12.2678L33.7447 12.2917L33.75 12.3141L33.7588 12.3293L33.7615 12.3429L33.7616 12.3607L33.7625 12.3754L33.7661 12.386L33.7651 12.4019L33.7649 12.4147L33.7764 12.4258L33.7757 12.4466L33.7836 12.4648L33.7875 12.4804L33.7797 12.4976L33.7931 12.5076L33.7962 12.5262L33.7878 12.5336L33.801 12.5564L33.806 12.5739L33.8057 12.5867L33.811 12.6091L33.8073 12.629L33.8131 12.6434L33.8178 12.656L33.8244 12.6674L33.8142 12.7114L33.8339 12.7279L33.8356 12.7397L33.8297 12.7558L33.8325 12.7694L33.8374 12.7691L33.8427 12.7915L33.8384 12.8016L33.8453 12.8179L33.8464 12.8376L33.8525 12.8569L33.8537 12.8766L33.8541 12.8992L33.8615 12.9076L33.8605 12.9235L33.8616 12.9431L33.8581 12.9502L33.8609 12.9639L33.8686 12.9772L33.8671 13.0009L33.8672 13.0187L33.8697 13.0274L33.8702 13.0372L33.8733 13.0558L33.8747 13.0626L33.8713 13.0874L33.8711 13.1002L33.8681 13.1172L33.8712 13.1357L33.8616 13.1718L33.8553 13.183L33.8404 13.1967L33.8317 13.2169L33.819 13.2345L33.8117 13.2438L33.8115 13.2566L33.7997 13.2583L33.784 13.275L33.7714 13.2797L33.7409 13.2796L33.7142 13.295L33.6989 13.286L33.6809 13.2812L33.6647 13.2753L33.6568 13.2748L33.6396 13.2669L33.621 13.2523L33.6136 13.2438L33.607 13.2324L33.5957 13.2262L33.59 13.2117L33.5773 13.1987L33.5743 13.1802L33.5545 13.1636L33.5571 13.124L33.5543 13.1104L33.5439 13.1012L33.5389 13.0837L33.544 13.0706L33.5439 13.0529L33.5404 13.0422L33.54 13.0196L33.5487 13.0171L33.5505 12.9983L33.5595 12.9829L33.5657 12.9717L33.5623 12.9483L33.5751 12.9307L33.5772 12.9168L33.5682 12.9144L33.5613 12.9158L33.5459 12.9374L33.5356 12.9459L33.5247 12.9623L33.5147 12.9758L33.5134 12.9867L33.5074 13.0028L33.5088 13.0096L33.5078 13.0255L33.5062 13.0315L33.4934 13.049L33.4938 13.0716L33.4917 13.0856L33.4817 13.099L33.4869 13.1213L33.5021 13.1431L33.5018 13.1559L33.5044 13.1824L33.5085 13.1851L33.5059 13.2069L33.5229 13.2276L33.5391 13.2513L33.5561 13.2719L33.5597 13.2826L33.5712 13.2937L33.5852 13.3135L33.598 13.3138L33.6172 13.3205L33.6303 13.3256L33.6656 13.3383L33.6816 13.3265L33.6988 13.3343L33.7272 13.3306L33.7378 13.3271L33.7629 13.3177L33.7691 13.3064L33.789 13.3102L33.8035 13.3044L33.8162 13.2869L33.8353 13.2759L33.8513 13.2641L33.8526 13.2531L33.857 13.243L33.8594 13.234L33.8784 13.223L33.8863 13.2058L33.8905 13.1779L33.8995 13.1626L33.9038 13.1525L33.9119 13.1402L33.917 13.1093L33.9194 13.1003L33.9231 13.0804L33.9257 13.0585L33.9262 13.0329L33.9286 13.0239L33.9239 13.0113L33.9276 12.9914L33.9218 12.977L33.9231 12.966L33.9242 12.9502L33.9339 12.9319L33.921 12.9139L33.928 12.8997L33.9197 12.8765L33.9189 12.8618L33.924 12.8487L33.9214 12.8222L33.9186 12.8086L33.9226 12.7936L33.9179 12.781L33.916 12.7644L33.9058 12.7423L33.9047 12.6921L33.9099 12.679L33.8961 12.6641L33.9002 12.649L33.8936 12.6376L33.8932 12.615L33.8994 12.6038L33.8797 12.5872L33.8897 12.5738L33.8856 12.5533L33.8773 12.5302L33.8739 12.5067L33.8733 12.4969L33.862 12.4729L33.8679 12.4568L33.8564 12.4457L33.8555 12.4309L33.8483 12.4097L33.8467 12.398L33.8431 12.3873L33.8438 12.3666L33.8377 12.3472L33.8349 12.3336L33.8299 12.3162L33.8268 12.2976L33.8248 12.281L33.818 12.2647L33.8133 12.2521L33.8124 12.2374L33.8041 12.2142L33.8013 12.2006L33.7952 12.1813L33.7921 12.1627L33.7904 12.1332L33.7838 12.1218L33.7851 12.1109L33.7801 12.0935L33.7693 12.0616L33.7648 12.0362L33.7609 12.0207L33.7559 12.0032L33.7504 11.976L33.738 11.9501L33.7218 11.9442ZM34.8754 12.4264L34.8931 12.4086L34.9088 12.3919L34.9191 12.3834L34.9292 12.3699L34.9395 12.3614L34.9482 12.3412L34.9628 12.3226L34.9712 12.2974L34.9771 12.2813L34.9849 12.2641L34.9909 12.248L35.0047 12.2324L35.0095 12.2143L35.0155 12.1982L35.0238 12.1731L35.0251 12.1621L35.0313 12.1332L35.0423 12.1039L35.0439 12.0802L35.0498 12.0641L35.0586 12.0133L35.0643 12.01L35.0812 12.0612L35.0906 12.0863L35.1062 12.1178L35.1131 12.1342L35.128 12.151L35.1436 12.1649L35.1491 12.1744L35.1625 12.1844L35.1911 12.1857L35.2035 12.1938L35.216 12.1891L35.2326 12.1871L35.2582 12.1698L35.2693 12.1583L35.2846 12.1495L35.3263 12.0898L35.3316 12.0462L35.3356 12.0311L35.3189 12.0154L35.3048 12.0261L35.2972 12.0482L35.2878 12.0715L35.2816 12.0827L35.2718 12.101L35.2525 12.1248L35.227 12.1421L35.1994 12.1428L35.174 12.1295L35.1652 12.1143L35.1515 12.0994L35.1386 12.0814L35.1303 12.0582L35.1275 12.0446L35.1162 12.0206L35.106 11.9986L35.1045 11.974L35.0987 11.9596L35.0937 11.9422L35.0882 11.9149L35.0864 11.8854L35.08 11.8612L35.0788 11.8415L35.0757 11.823L35.0694 11.7987L35.061 11.7578L35.0628 11.739L35.0622 11.7292L35.0594 11.7155L35.0555 11.7L35.056 11.6744L35.0453 11.6602L35.0482 11.6433L35.0497 11.6195L35.051 11.6086L35.0406 11.5994L35.0201 11.5858L35.0051 11.5818L34.9903 11.5827L34.9784 11.5972L34.9528 11.5968L34.9358 11.5939L34.92 11.5928L34.8987 11.6L34.8723 11.6026L34.8619 11.6111L34.8508 11.6226L34.8353 11.6265L34.8263 11.6418L34.8165 11.6424L34.8092 11.6517L34.7989 11.6602L34.7902 11.6805L34.7783 11.695L34.7658 11.7174L34.7607 11.7305L34.754 11.7497L34.7559 11.7663L34.7448 11.7778L34.7476 11.7914L34.7368 11.8079L34.745 11.831L34.7388 11.8422L34.728 11.8586L34.7256 11.8677L34.7325 11.884L34.7363 11.8995L34.7255 11.916L34.7231 11.925L34.7398 11.9407L34.732 11.958L34.7452 11.9808L34.7455 12.0035L34.7606 12.0252L34.7585 12.0392L34.7727 12.0462L34.7769 12.0666L34.7914 12.0786L34.7997 12.084L34.8117 12.0872L34.8273 12.1011L34.8469 12.0999L34.8693 12.0946L34.887 12.0945L34.9023 12.0857L34.9216 12.0796L34.9369 12.0708L34.9456 12.0683L34.9635 12.0554L34.9839 12.0335L34.9977 12.0179L34.9999 12.0217L35.0011 12.0414L34.9917 12.0646L34.9907 12.0804L34.9869 12.1004L34.981 12.1165L34.9773 12.1364L34.9686 12.1567L34.9692 12.1665L34.9644 12.1845L34.953 12.2088L34.9433 12.2272L34.9404 12.2441L34.9303 12.2575L34.9209 12.2808L34.9196 12.2917L34.9087 12.3081L34.8998 12.3234L34.8927 12.3376L34.8773 12.3593L34.8585 12.3752L34.8463 12.3848L34.8272 12.3958L34.8052 12.406L34.7877 12.411L34.767 12.4102L34.7523 12.4289L34.7655 12.4517L34.7888 12.4612L34.8297 12.4528L34.8754 12.4264ZM34.9478 12.0239L34.9105 12.0428L34.8882 12.0481L34.8636 12.0496L34.8426 12.044L34.8196 12.0217L34.8105 12.0015L34.8009 11.9893L34.7934 11.9631L34.7873 11.9438L34.7883 11.928L34.7882 11.8925L34.7883 11.8619L34.7945 11.8507L34.799 11.81L34.8041 11.7969L34.8054 11.786L34.8103 11.768L34.8227 11.7455L34.8363 11.725L34.8422 11.7089L34.8533 11.6974L34.874 11.6804L34.8886 11.6617L34.8963 11.6573L34.9213 11.6479L34.9541 11.6519L34.9732 11.6586L34.9891 11.6774L34.9925 11.7008L35 11.727L35.0056 11.7543L35.0095 11.7875L35.0181 11.8156L35.0208 11.8598L35.0239 11.8783L35.0283 11.9037L35.0192 11.9318L35.0133 11.948L34.9989 11.9715L34.9812 11.9893L34.9478 12.0239ZM36.2633 11.9401L36.2684 11.927L36.2696 11.8983L36.278 11.8732L36.2687 11.8659L36.2699 11.8372L36.2568 11.8321L36.2641 11.8228L36.2515 11.8097L36.2563 11.7917L36.2467 11.7795L36.2461 11.7697L36.2392 11.7533L36.2328 11.7291L36.2297 11.6928L36.2269 11.6791L36.2311 11.6513L36.2275 11.6407L36.2267 11.6259L36.2334 11.6068L36.2322 11.5872L36.2318 11.5645L36.2367 11.5465L36.2376 11.5129L36.2413 11.493L36.244 11.4711L36.2449 11.4376L36.2446 11.4327L36.2464 11.4138L36.2491 11.392L36.2466 11.3833L36.2472 11.3448L36.2548 11.3226L36.2528 11.306L36.2522 11.2962L36.2532 11.2803L36.2575 11.2702L36.2564 11.2506L36.2639 11.2285L36.2654 11.2047L36.2646 11.19L36.265 11.1643L36.2684 11.1395L36.2735 11.1264L36.2859 11.1345L36.2848 11.1503L36.2934 11.1784L36.3036 11.2004L36.3059 11.222L36.3191 11.2449L36.3208 11.2566L36.3326 11.2726L36.3354 11.2863L36.3434 11.3045L36.3519 11.3148L36.3574 11.3244L36.3635 11.3437L36.3753 11.3598L36.3808 11.3693L36.3899 11.3894L36.3957 11.4039L36.4001 11.4115L36.4108 11.4256L36.4259 11.4474L36.449 11.4874L36.4529 11.5029L36.4674 11.5149L36.4811 11.5298L36.4956 11.5418L36.5137 11.5643L36.5502 11.5967L36.5674 11.6045L36.5868 11.6161L36.5939 11.6197L36.6073 11.6297L36.6235 11.6356L36.6401 11.6336L36.6521 11.6369L36.668 11.6379L36.6726 11.6327L36.6911 11.6296L36.7077 11.6276L36.7407 11.6187L36.7807 11.5956L36.7911 11.5871L36.8003 11.5767L36.8128 11.572L36.8229 11.5586L36.8435 11.5416L36.8503 11.5225L36.8633 11.5099L36.8717 11.4847L36.8816 11.4536L36.8886 11.4216L36.8996 11.3924L36.8992 11.352L36.9008 11.346L36.9018 11.3301L36.899 11.3165L36.8992 11.3037L36.8961 11.2851L36.8909 11.2805L36.8814 11.286L36.8771 11.2961L36.8729 11.324L36.8713 11.3477L36.8632 11.36L36.8595 11.3977L36.8547 11.4157L36.8494 11.4417L36.8421 11.4687L36.8226 11.5054L36.7919 11.5358L36.7664 11.5531L36.762 11.5632L36.737 11.5726L36.7228 11.5833L36.7043 11.5864L36.6915 11.5862L36.6655 11.5809L36.6456 11.5771L36.6379 11.5638L36.6231 11.5647L36.6116 11.5535L36.5963 11.5446L36.5938 11.5359L36.5752 11.5212L36.5596 11.5074L36.5489 11.4932L36.5423 11.4818L36.5278 11.4699L36.5174 11.4606L36.5028 11.4487L36.4959 11.4324L36.486 11.4152L36.4742 11.3992L36.4665 11.3858L36.4613 11.3812L36.4544 11.3649L36.4399 11.3529L36.4327 11.3317L36.4234 11.3243L36.4171 11.3178L36.414 11.2993L36.4082 11.2848L36.4008 11.2764L36.3939 11.2601L36.392 11.2434L36.3843 11.2301L36.3749 11.205L36.3628 11.1841L36.3616 11.1644L36.3495 11.1435L36.3497 11.1307L36.3444 11.1083L36.3413 11.0898L36.3303 11.0707L36.3275 11.0571L36.3198 11.0437L36.3173 11.0173L36.3164 11.0025L36.315 10.9957L36.3054 10.9835L36.3056 10.9707L36.3012 10.963L36.306 10.945L36.3007 10.9227L36.2936 10.9014L36.284 10.8892L36.2847 10.8684L36.2867 10.8368L36.277 10.8068L36.2737 10.7833L36.2769 10.7713L36.2784 10.7476L36.2742 10.7271L36.2722 10.7105L36.2774 10.6974L36.2759 10.6728L36.2802 10.6627L36.2751 10.6275L36.2811 10.6114L36.2761 10.594L36.2738 10.5724L36.2836 10.5541L36.283 10.5443L36.2805 10.5355L36.27 10.5086L36.278 10.4785L36.2807 10.4567L36.2765 10.4362L36.2813 10.4182L36.2831 10.3994L36.2888 10.3783L36.2898 10.3625L36.3028 10.3499L36.3166 10.3165L36.3258 10.3061L36.3465 10.2891L36.3732 10.2737L36.3857 10.269L36.4111 10.2645L36.4329 10.2672L36.4652 10.279L36.4805 10.288L36.5032 10.3053L36.5207 10.3181L36.5344 10.333L36.5383 10.3486L36.5324 10.3647L36.5254 10.3789L36.5276 10.4005L36.5378 10.4048L36.5411 10.4105L36.5564 10.4194L36.5766 10.4281L36.5927 10.434L36.6075 10.4331L36.6263 10.4349L36.6377 10.4283L36.644 10.4171L36.6431 10.4024L36.6433 10.3896L36.6394 10.374L36.6339 10.3645L36.6281 10.3501L36.605 10.3101L36.5861 10.2905L36.5749 10.2843L36.5623 10.2712L36.5563 10.2696L36.5327 10.2553L36.5188 10.2531L36.5016 10.2453L36.4824 10.2386L36.4434 10.2281L36.4174 10.2228L36.4016 10.2217L36.3672 10.2238L36.3536 10.2266L36.3342 10.2327L36.316 10.2407L36.3019 10.2514L36.2869 10.2651L36.2755 10.2717L36.2684 10.2859L36.2641 10.296L36.2606 10.3031L36.2484 10.3127L36.2383 10.3262L36.2403 10.3428L36.2238 10.3625L36.2348 10.3816L36.2255 10.392L36.2169 10.4122L36.2214 10.4376L36.2089 10.46L36.2049 10.475L36.2014 10.4999L36.2009 10.5078L36.2064 10.5173L36.2049 10.5411L36.2072 10.5626L36.1943 10.6107L36.1979 10.6213L36.2059 10.6396L36.1972 10.6598L36.1949 10.6865L36.202 10.6901L36.2062 10.7105L36.2011 10.7236L36.2099 10.7389L36.2089 10.7547L36.2092 10.7774L36.2071 10.7913L36.2026 10.8142L36.2054 10.8279L36.2093 10.8434L36.2186 10.8685L36.2214 10.8821L36.218 10.9069L36.2244 10.9312L36.2256 10.9508L36.2289 10.9743L36.2284 10.9822L36.232 10.9928L36.2329 11.0076L36.2363 11.031L36.2323 11.046L36.2307 11.0698L36.2316 11.0845L36.2306 11.1003L36.2211 11.1236L36.2198 11.1345L36.2191 11.1552L36.2165 11.1771L36.2193 11.1907L36.2179 11.2016L36.2129 11.2325L36.2105 11.2415L36.2109 11.2642L36.2044 11.2882L36.2083 11.3037L36.203 11.3297L36.2008 11.3436L36.2044 11.3542L36.2026 11.3731L36.2051 11.3818L36.2038 11.3927L36.2006 11.4047L36.2001 11.4304L36.1986 11.4541L36.1916 11.4861L36.1917 11.5038L36.1887 11.5513L36.1835 11.5645L36.176 11.5866L36.1777 11.5983L36.1775 11.6111L36.1685 11.6087L36.1643 11.5883L36.15 11.5635L36.1499 11.5458L36.137 11.5278L36.1386 11.5218L36.1317 11.5055L36.1256 11.4861L36.1217 11.4706L36.1124 11.4633L36.1148 11.4542L36.112 11.4406L36.1035 11.4125L36.1062 11.4084L36.0982 11.3902L36.0962 11.3736L36.0901 11.3542L36.0892 11.3395L36.0815 11.3261L36.0762 11.3038L36.0698 11.2795L36.0709 11.2637L36.0659 11.2463L36.0598 11.2269L36.0589 11.2122L36.0531 11.1977L36.0519 11.1781L36.0502 11.1664L36.0439 11.1421L36.0345 11.117L36.0245 11.0822L36.0223 11.0784L36.0211 11.0587L36.0172 11.0432L36.0163 11.0284L36.0061 11.0064L36.0069 10.9856L36.0019 10.9682L36.0018 10.9505L35.9993 10.9417L35.9995 10.9289L35.997 10.9202L35.9961 10.9055L35.9909 10.8831L35.9876 10.8774L35.9856 10.8608L35.9828 10.8471L35.9807 10.8128L35.9803 10.7901L35.977 10.7667L35.9742 10.753L35.9771 10.7361L35.9727 10.7285L35.9699 10.7148L35.9638 10.6955L35.9689 10.6824L35.9623 10.6532L35.963 10.6325L35.9618 10.6128L35.9636 10.594L35.9581 10.5845L35.9617 10.5773L35.9635 10.5585L35.9707 10.5315L35.9718 10.5156L35.9704 10.5088L35.9774 10.4946L35.965 10.4687L35.9546 10.4595L35.9324 10.4519L35.9163 10.446L35.9065 10.4466L35.8959 10.4502L35.8809 10.4639L35.8641 10.4787L35.8625 10.4847L35.859 10.5096L35.8627 10.5379L35.8677 10.5554L35.8705 10.569L35.8788 10.5922L35.8797 10.6069L35.8737 10.623L35.8741 10.6457L35.8706 10.6528L35.8783 10.6661L35.8773 10.682L35.8732 10.697L35.8738 10.7068L35.8696 10.7347L35.8762 10.7461L35.8754 10.7491L35.8738 10.7728L35.8717 10.7868L35.8731 10.7936L35.8656 10.8157L35.8657 10.8335L35.8627 10.8504L35.8617 10.8662L35.8591 10.8881L35.8545 10.911L35.8497 10.929L35.8482 10.9528L35.8461 10.9667L35.8417 10.9768L35.8401 10.9828L35.835 10.996L35.834 11.0118L35.8321 11.0306L35.8262 11.0468L35.8127 11.085L35.7987 11.1135L35.7781 11.1482L35.7615 11.1502L35.7524 11.1478L35.7472 11.1432L35.7392 11.1249L35.7376 11.1132L35.7269 11.099L35.7225 11.0914L35.7142 11.0683L35.7043 11.0511L35.7012 11.0326L35.6962 11.0151L35.6899 11.0086L35.6805 10.9835L35.6777 10.9699L35.6621 10.9561L35.6536 10.9457L35.6516 10.9291L35.6466 10.9117L35.6376 10.9092L35.6264 10.903L35.6255 10.8883L35.6137 10.8722L35.5959 10.8546L35.5819 10.8525L35.5707 10.8462L35.5581 10.8332L35.5485 10.821L35.5376 10.8196L35.5223 10.8107L35.513 10.8034L35.4968 10.7974L35.4679 10.7913L35.4611 10.7927L35.4288 10.7808L35.4024 10.7834L35.3909 10.79L35.3743 10.792L35.3648 10.7975L35.3435 10.8047L35.3343 10.8151L35.3187 10.819L35.3111 10.8234L35.2943 10.8382L35.2771 10.8481L35.2804 10.8538L35.2595 10.8659L35.254 10.8741L35.2448 10.8845L35.2247 10.8936L35.2206 10.9086L35.2062 10.9144L35.1954 10.9309L35.1913 10.9459L35.1878 10.953L35.1691 10.9866L35.1597 11.0099L35.147 11.0451L35.1422 11.0632L35.1412 11.079L35.1368 11.0891L35.1333 11.0962L35.1353 11.1129L35.1226 11.1304L35.1267 11.1508L35.1205 11.162L35.1157 11.1801L35.1221 11.2043L35.1158 11.2156L35.1104 11.2238L35.1129 11.2325L35.1046 11.2576L35.103 11.2814L35.099 11.2964L35.1067 11.3097L35.1013 11.3179L35.1069 11.3452L35.1114 11.3706L35.1035 11.3878L35.1058 11.4093L35.1113 11.4189L35.1079 11.4437L35.1109 11.4623L35.1178 11.4786L35.1379 11.5001L35.1644 11.5152L35.1824 11.5201L35.2032 11.5208L35.2111 11.5213L35.2255 11.5155L35.2457 11.5064L35.2753 11.4918L35.2846 11.4814L35.2818 11.4678L35.2825 11.447L35.2696 11.4291L35.2491 11.4155L35.2253 11.414L35.216 11.4067L35.2113 11.3941L35.2055 11.3797L35.2038 11.368L35.2068 11.351L35.2007 11.3317L35.1866 11.2941L35.1908 11.2662L35.1834 11.2578L35.188 11.2349L35.1819 11.2155L35.1837 11.1967L35.1866 11.1798L35.1849 11.168L35.189 11.153L35.1903 11.1421L35.1932 11.1252L35.198 11.1071L35.2007 11.0853L35.2142 11.0648L35.2183 11.0497L35.2307 11.0273L35.2317 11.0115L35.2339 10.9975L35.2439 10.9841L35.246 10.9702L35.2522 10.959L35.2639 10.9396L35.2812 10.9168L35.2951 10.9012L35.3024 10.8919L35.3086 10.8807L35.3304 10.8656L35.3369 10.8593L35.3525 10.8554L35.3696 10.8455L35.3928 10.8372L35.4121 10.8311L35.4277 10.8272L35.4405 10.8274L35.4604 10.8312L35.4776 10.839L35.4807 10.8398L35.4938 10.8449L35.5053 10.8561L35.5187 10.8661L35.5209 10.8699L35.5346 10.8849L35.5412 10.8963L35.556 10.9132L35.5629 10.9295L35.5736 10.9436L35.5878 10.9507L35.5914 10.9613L35.6043 10.9792L35.6068 10.988L35.6197 11.0059L35.6373 11.0364L35.6423 11.0538L35.65 11.0672L35.6468 11.0792L35.654 11.1005L35.6557 11.1122L35.662 11.1187L35.6744 11.1446L35.678 11.1552L35.6843 11.1617L35.691 11.1909L35.6946 11.2015L35.6965 11.2182L35.696 11.2261L35.7086 11.2391L35.7131 11.2645L35.7107 11.2735L35.7236 11.2914L35.7281 11.3168L35.7353 11.338L35.7381 11.3517L35.7384 11.3566L35.7458 11.365L35.756 11.3871L35.7591 11.4056L35.761 11.4223L35.7652 11.4427L35.7625 11.4468L35.7768 11.4716L35.7802 11.495L35.7846 11.5026L35.7844 11.5155L35.7935 11.5356L35.784 11.5589L35.7827 11.5698L35.7967 11.5896L35.797 11.5946L35.7859 11.6061L35.7909 11.6235L35.7964 11.633L35.7967 11.6557L35.8091 11.6815L35.7975 11.701L35.8068 11.7083L35.7987 11.7206L35.8025 11.7362L35.8012 11.7471L35.8196 11.7568L35.8083 11.7989L35.8184 11.8032L35.8177 11.824L35.8161 11.8477L35.8224 11.8542L35.8198 11.8761L35.8101 11.8944L35.8143 11.9148L35.8176 11.9206L35.8146 11.9375L35.8098 11.9555L35.8123 11.9642L35.8097 11.9861L35.8048 12.0041L35.7959 12.0194L35.793 12.0364L35.784 12.0517L35.7735 12.073L35.7706 12.0899L35.758 12.0946L35.7545 12.1018L35.7358 12.1177L35.724 12.1194L35.7052 12.1175L35.6935 12.1192L35.664 12.121L35.646 12.1162L35.626 12.1124L35.6143 12.1141L35.5889 12.1009L35.5713 12.0881L35.5639 12.0797L35.5447 12.0552L35.5272 12.0425L35.523 12.022L35.5032 11.9877L35.4969 11.9812L35.4963 11.9714L35.4853 11.9523L35.4828 11.9436L35.4784 11.936L35.4765 11.9193L35.4734 11.9008L35.473 11.8782L35.4737 11.8574L35.4717 11.823L35.4757 11.808L35.4636 11.7871L35.4771 11.7665L35.4721 11.7491L35.4735 11.7382L35.4688 11.7256L35.4777 11.7103L35.4738 11.6948L35.4781 11.6847L35.4898 11.6652L35.4864 11.6418L35.4904 11.6268L35.5032 11.6092L35.5069 11.5893L35.5139 11.5751L35.5153 11.5642L35.516 11.5434L35.5026 11.5334L35.4933 11.5438L35.4822 11.5553L35.4736 11.5755L35.4654 11.5878L35.4574 11.6179L35.4454 11.6324L35.4507 11.6548L35.4396 11.6663L35.4378 11.6851L35.4394 11.6968L35.4305 11.7122L35.4192 11.7365L35.4189 11.7493L35.4149 11.7643L35.4022 11.7996L35.4028 11.8094L35.4015 11.8203L35.4062 11.8329L35.4055 11.8536L35.4026 11.8706L35.4067 11.891L35.4101 11.9145L35.4121 11.9311L35.4119 11.9439L35.4196 11.9573L35.4276 11.9755L35.4351 12.0017L35.4409 12.0161L35.4549 12.036L35.4588 12.0515L35.472 12.0744L35.4843 12.0825L35.4988 12.0944L35.5002 12.1012L35.5098 12.1135L35.5276 12.1311L35.5481 12.1447L35.5701 12.1651L35.5821 12.1683L35.5949 12.1685L35.6124 12.1812L35.625 12.1766L35.631 12.1782L35.6618 12.1832L35.6757 12.1853L35.6905 12.1844L35.7169 12.1819L35.7306 12.1791L35.7613 12.1664L35.7695 12.1541L35.7793 12.1535L35.7855 12.1423L35.8038 12.1343L35.8198 12.1225L35.8332 12.1148L35.8415 12.0896L35.8458 12.0795L35.8573 12.0729L35.864 12.0538L35.866 12.0221L35.8663 12.0093L35.8676 11.9984L35.8863 11.9825L35.8788 11.9563L35.8902 11.932L35.8907 11.924L35.8851 11.8968L35.893 11.8796L35.8923 11.852L35.8901 11.8482L35.8897 11.8255L35.8935 11.8056L35.8888 11.7931L35.886 11.7794L35.8867 11.7587L35.8842 11.75L35.886 11.7311L35.8848 11.7115L35.881 11.696L35.8798 11.6763L35.8794 11.6537L35.8758 11.643L35.8762 11.6174L35.8707 11.5901L35.868 11.5459L35.8625 11.5364L35.8662 11.5165L35.8613 11.499L35.8511 11.4947L35.8601 11.4794L35.8494 11.4652L35.8534 11.4502L35.8539 11.4423L35.8426 11.4183L35.842 11.4085L35.8381 11.393L35.8364 11.3813L35.8304 11.3619L35.8298 11.3521L35.8229 11.3357L35.8168 11.3164L35.8169 11.2858L35.8141 11.2722L35.8039 11.2501L35.8142 11.2239L35.8358 11.1733L35.8441 11.1482L35.8517 11.126L35.8562 11.1031L35.8657 11.0799L35.8694 11.0599L35.8723 11.043L35.8774 11.0299L35.8815 11.0149L35.8828 11.0039L35.8857 10.987L35.8916 10.9709L35.8916 10.9531L35.8964 10.9351L35.8974 10.9193L35.8976 10.9064L35.9036 10.8903L35.9068 10.8783L35.9244 10.9088L35.9297 10.9311L35.9286 10.947L35.9374 10.9622L35.9369 10.9701L35.9441 10.9914L35.9434 11.0121L35.9473 11.0277L35.952 11.0402L35.9524 11.0628L35.9601 11.0939L35.9705 11.1031L35.966 11.1261L35.974 11.1443L35.9807 11.1735L35.9911 11.1827L35.9847 11.2068L35.988 11.2125L35.9962 11.2179L35.9943 11.2367L36.0012 11.2531L36.0059 11.2656L36.0057 11.2784L36.0164 11.2926L36.0159 11.3005L36.0212 11.3229L36.0254 11.3433L36.0227 11.3651L36.0299 11.3864L36.0294 11.3943L36.0412 11.4104L36.0448 11.421L36.0416 11.433L36.052 11.4422L36.0559 11.4578L36.0566 11.4853L36.0665 11.5025L36.0761 11.5147L36.0773 11.5344L36.0745 11.5385L36.0894 11.5553L36.0834 11.5714L36.101 11.6019L36.1009 11.6325L36.1127 11.6485L36.1174 11.6611L36.1249 11.6872L36.1315 11.6987L36.1332 11.7104L36.1384 11.7327L36.1456 11.7363L36.1487 11.7725L36.1509 11.7764L36.1534 11.7851L36.1633 11.8022L36.1675 11.8227L36.1777 11.8447L36.1791 11.8515L36.1852 11.8709L36.1922 11.905L36.2059 11.9199L36.2128 11.9363L36.2294 11.9343L36.2466 11.9421L36.2633 11.9401ZM37.6411 10.6797L37.6302 10.6784L37.6204 10.679L37.6013 10.69L37.5888 10.6947L37.5771 10.6964L37.566 10.7079L37.5545 10.7145L37.5401 10.7203L37.5221 10.7332L37.5137 10.7406L37.5018 10.7551L37.483 10.771L37.4531 10.7984L37.4379 10.7589L37.4258 10.7202L37.4082 10.6898L37.4065 10.678L37.3845 10.6399L37.3754 10.6198L37.3682 10.5985L37.3665 10.5868L37.3593 10.5655L37.3554 10.55L37.3444 10.531L37.3337 10.5168L37.3284 10.4945L37.3188 10.4822L37.3212 10.4732L37.3088 10.4473L37.3063 10.4386L37.297 10.4313L37.2931 10.4158L37.2915 10.404L37.2739 10.3735L37.2708 10.355L37.2694 10.3482L37.2606 10.3329L37.2491 10.3218L37.2384 10.3077L37.2268 10.2965L37.2178 10.2941L37.2061 10.2958L37.1846 10.2981L37.178 10.3044L37.1767 10.3153L37.1735 10.3273L37.1785 10.3448L37.1821 10.3554L37.1781 10.3704L37.18 10.3871L37.1757 10.3972L37.1796 10.4127L37.1794 10.4255L37.1765 10.4425L37.1785 10.4591L37.1763 10.473L37.1805 10.4935L37.1806 10.5112L37.1758 10.5292L37.1728 10.5462L37.1707 10.5601L37.1661 10.5653L37.1662 10.583L37.1627 10.5902L37.1605 10.6041L37.159 10.6278L37.1558 10.6399L37.1521 10.6598L37.1469 10.6729L37.1451 10.6917L37.1449 10.7046L37.1379 10.7188L37.1379 10.7365L37.1342 10.7565L37.1313 10.7734L37.1319 10.7832L37.1306 10.7941L37.1314 10.8089L37.1263 10.822L37.1215 10.84L37.1235 10.8567L37.1145 10.872L37.1154 10.8867L37.1073 10.899L37.106 10.91L37.1066 10.9198L37.1025 10.9348L37.0941 10.9422L37.092 10.9561L37.088 10.9712L37.0877 10.984L37.0818 11.0001L37.0729 11.0154L37.0705 11.0244L37.0631 11.0338L37.0463 11.0486L37.0312 11.0445L37.0186 11.0315L37.0106 11.0133L37.0054 10.9909L37.004 10.9841L37.0017 10.9625L37.0016 10.9448L36.9952 10.9205L36.9916 10.9099L36.9935 10.8911L36.9937 10.8783L36.9903 10.8548L36.9883 10.8382L36.9833 10.8207L36.9835 10.8079L36.9851 10.8019L36.9796 10.7746L36.9795 10.7569L36.9755 10.7236L36.9776 10.7097L36.9754 10.6881L36.9728 10.6617L36.967 10.6472L36.9694 10.6382L36.9647 10.6257L36.9635 10.6061L36.9604 10.5875L36.945 10.5608L36.9354 10.5486L36.922 10.5386L36.9097 10.5304L36.8876 10.5229L36.866 10.5252L36.8562 10.5258L36.8456 10.5294L36.8361 10.5349L36.8257 10.5434L36.8116 10.5541L36.7969 10.5727L36.7897 10.5997L36.7802 10.623L36.7743 10.6391L36.7676 10.6582L36.7654 10.6722L36.7625 10.6891L36.7593 10.7011L36.7548 10.724L36.7496 10.7372L36.7543 10.7497L36.7633 10.7521L36.7803 10.755L36.7895 10.7446L36.7976 10.7146L36.8103 10.6971L36.8102 10.6793L36.8256 10.64L36.8326 10.608L36.8523 10.5763L36.8679 10.5724L36.881 10.5775L36.8955 10.5894L36.9035 10.6077L36.9033 10.6205L36.9066 10.6262L36.9092 10.6527L36.9142 10.6701L36.92 10.7023L36.9212 10.7219L36.9235 10.7435L36.9217 10.7623L36.9247 10.7809L36.9215 10.7929L36.9295 10.8111L36.9299 10.8338L36.9272 10.8379L36.933 10.8523L36.9303 10.8742L36.9369 10.8856L36.9359 10.9014L36.9387 10.9151L36.9418 10.9336L36.9457 10.9491L36.9463 10.959L36.9541 10.99L36.9557 11.0018L36.9579 11.0056L36.9569 11.0214L36.9608 11.0369L36.9639 11.0555L36.9743 11.0647L36.9869 11.0778L36.9954 11.0881L36.9998 11.0957L37.0192 11.1074L37.0321 11.1076L37.0419 11.107L37.0558 11.1091L37.0675 11.1074L37.0757 11.0951L37.0955 11.0811L37.1018 11.0699L37.1039 11.056L37.1161 11.0463L37.1136 11.0376L37.1253 11.0182L37.135 10.9999L37.1426 10.9777L37.1471 10.9548L37.1462 10.9401L37.156 10.9217L37.1602 10.8939L37.1639 10.8739L37.1666 10.8521L37.1693 10.848L37.1711 10.8292L37.1726 10.8054L37.1756 10.7885L37.179 10.7636L37.186 10.7494L37.1881 10.7355L37.1916 10.7106L37.1977 10.6817L37.2007 10.6648L37.2022 10.641L37.2043 10.6271L37.211 10.608L37.211 10.5902L37.2112 10.5774L37.219 10.5602L37.2219 10.5432L37.2244 10.5342L37.2278 10.5094L37.2261 10.4976L37.232 10.4638L37.2366 10.4586L37.2617 10.5152L37.273 10.5392L37.2768 10.5547L37.2834 10.5662L37.293 10.5784L37.2928 10.5912L37.3035 10.6054L37.3109 10.6138L37.3156 10.6263L37.3165 10.641L37.3283 10.6571L37.3341 10.6715L37.3369 10.6852L37.3389 10.7018L37.3392 10.7067L37.3458 10.7181L37.3617 10.7369L37.3621 10.7595L37.3673 10.7642L37.3726 10.7865L37.3811 10.7968L37.3941 10.8325L37.4004 10.8568L37.3833 10.8667L37.3643 10.8954L37.3548 10.9009L37.3417 10.9135L37.3377 10.9286L37.3323 10.9368L37.3253 10.951L37.3141 10.9625L37.3044 10.9808L37.2795 11.0257L37.2629 11.0454L37.2478 11.072L37.2423 11.0802L37.2291 11.1056L37.2177 11.1122L37.2112 11.1362L37.1998 11.1428L37.1985 11.1538L37.1941 11.1639L37.1787 11.1855L37.1681 11.2068L37.1671 11.2227L37.1669 11.2355L37.1613 11.2565L37.1493 11.2711L37.139 11.2796L37.1434 11.2872L37.1276 11.3039L37.1258 11.3227L37.1226 11.3348L37.1126 11.3482L37.1159 11.3539L37.114 11.3727L37.1002 11.3883L37.1047 11.4137L37.0954 11.4241L37.0968 11.4309L37.0773 11.4498L37.0787 11.4567L37.0781 11.4646L37.0774 11.4853L37.062 11.5069L37.0579 11.522L37.0588 11.5367L37.0551 11.5566L37.0527 11.5656L37.0505 11.5796L37.047 11.5867L37.0384 11.6069L37.0428 11.6145L37.0369 11.6307L37.0295 11.64L37.0277 11.6588L37.0343 11.6702L37.0292 11.6834L37.0224 11.7025L37.0227 11.7074L37.0133 11.7306L37.0107 11.7525L37.0121 11.777L37.0146 11.7858L37.0041 11.8071L37.002 11.821L37.0067 11.8335L37.0026 11.8486L37.0065 11.8641L37.0009 11.8851L37.0026 11.8969L36.995 11.919L37 11.9365L37.0014 11.9433L37.0069 11.9528L36.9972 11.9711L36.9967 11.979L36.9934 11.9911L37.0044 12.0101L37.0061 12.0218L37.0032 12.0388L37.0218 12.0534L37.0284 12.0649L37.0334 12.0823L37.0332 12.0951L37.0286 12.1003L37.0404 12.1164L37.0464 12.118L37.0617 12.1269L37.0743 12.14L37.0855 12.1462L37.0899 12.1538L37.1115 12.1515L37.1238 12.1597L37.1423 12.1566L37.1481 12.1533L37.1625 12.1475L37.181 12.1444L37.2045 12.141L37.2208 12.1341L37.2432 12.1288L37.2568 12.1261L37.2702 12.1184L37.2783 12.106L37.2954 12.0961L37.3066 12.0846L37.3256 12.0736L37.3299 12.0635L37.3411 12.052L37.3571 12.0402L37.3615 12.0301L37.3723 12.0137L37.3758 12.0065L37.3938 11.9936L37.3978 11.9786L37.4062 11.9712L37.4108 11.9483L37.4238 11.9357L37.4395 11.9189L37.4417 11.905L37.4536 11.8905L37.4633 11.8544L37.4763 11.8418L37.4842 11.8246L37.489 11.8066L37.5079 11.7601L37.517 11.7142L37.5237 11.6951L37.5315 11.6779L37.532 11.6522L37.5382 11.641L37.5381 11.6232L37.5415 11.5984L37.5445 11.5815L37.5466 11.5675L37.54 11.5561L37.5413 11.5452L37.551 11.5269L37.5556 11.5039L37.5536 11.4873L37.5581 11.4643L37.5545 11.4537L37.5621 11.4316L37.5669 11.4135L37.572 11.4004L37.5613 11.3863L37.5602 11.3666L37.5656 11.3584L37.5625 11.3399L37.5608 11.3282L37.5585 11.3066L37.5617 11.2946L37.5595 11.273L37.5619 11.264L37.555 11.2477L37.5525 11.239L37.5524 11.2212L37.5474 11.2038L37.5457 11.1921L37.5429 11.1607L37.5406 11.1391L37.5408 11.1263L37.5298 11.1073L37.5344 11.1021L37.5343 11.0843L37.5294 11.0669L37.5255 11.0513L37.5227 11.0377L37.5204 11.0162L37.513 11.0077L37.5115 10.9832L37.5065 10.9657L37.5026 10.9502L37.4952 10.924L37.4954 10.9112L37.4874 10.893L37.4879 10.8851L37.4769 10.866L37.4686 10.8428L37.4942 10.8255L37.4947 10.8176L37.5047 10.8042L37.515 10.7957L37.5202 10.7826L37.5422 10.7724L37.5509 10.7522L37.5696 10.7362L37.5781 10.7288L37.5887 10.7252L37.6017 10.7126L37.6162 10.7068L37.6423 10.6994L37.6543 10.6848L37.654 10.6799L37.6411 10.6797ZM37.422 10.9206L37.4287 10.9497L37.4408 10.9707L37.445 10.9911L37.4417 11.0031L37.4429 11.0228L37.458 11.0446L37.4627 11.0571L37.4606 11.071L37.4683 11.0843L37.4687 11.107L37.4674 11.1179L37.4682 11.1326L37.4836 11.1593L37.4856 11.176L37.4822 11.2008L37.4886 11.2251L37.4928 11.2455L37.4912 11.2693L37.491 11.2821L37.5014 11.2913L37.4931 11.3165L37.488 11.3296L37.5003 11.3377L37.4951 11.3508L37.5036 11.3612L37.4912 11.3836L37.4978 11.395L37.5041 11.4015L37.5031 11.4174L37.4908 11.427L37.4933 11.4357L37.4964 11.4542L37.4897 11.4734L37.4936 11.4889L37.4824 11.5004L37.4822 11.5133L37.4801 11.5272L37.4851 11.5446L37.4808 11.5547L37.4877 11.5711L37.4771 11.5924L37.481 11.6079L37.4786 11.617L37.4776 11.6328L37.4785 11.6475L37.4694 11.6934L37.4632 11.7046L37.4643 11.7243L37.4546 11.7426L37.4479 11.7617L37.4397 11.774L37.4278 11.7886L37.4344 11.8L37.4216 11.8175L37.4108 11.8339L37.4095 11.8449L37.3948 11.8635L37.393 11.8823L37.3852 11.8995L37.3756 11.905L37.3711 11.928L37.3567 11.9338L37.3493 11.9431L37.3388 11.9644L37.3285 11.9729L37.3225 11.989L37.3106 12.0036L37.2934 12.0135L37.2831 12.022L37.2736 12.0275L37.2608 12.045L37.2513 12.0505L37.2358 12.0544L37.224 12.0561L37.2148 12.0665L37.2037 12.078L37.1802 12.0814L37.1702 12.0948L37.1582 12.0916L37.1434 12.0924L37.1232 12.0838L37.1122 12.0648L37.0944 12.0471L37.087 12.0387L37.0716 12.012L37.066 11.9847L37.0659 11.967L37.0675 11.961L37.0628 11.9485L37.0661 11.9364L37.0644 11.9247L37.0632 11.9051L37.0585 11.8925L37.0549 11.8819L37.0608 11.8658L37.055 11.8513L37.053 11.8347L37.0552 11.8208L37.0576 11.8118L37.0597 11.7978L37.0656 11.7817L37.0697 11.7667L37.0772 11.7445L37.0725 11.732L37.0727 11.7192L37.0814 11.699L37.0791 11.6774L37.0774 11.6657L37.0858 11.6583L37.0948 11.643L37.0892 11.6157L37.1008 11.5963L37.1005 11.5914L37.1024 11.5725L37.101 11.5657L37.1061 11.5526L37.1128 11.5335L37.1078 11.516L37.1122 11.5059L37.1246 11.4835L37.1283 11.4635L37.1406 11.4539L37.1413 11.4332L37.1418 11.4253L37.151 11.3971L37.1512 11.3843L37.1574 11.3731L37.1661 11.3528L37.1715 11.3446L37.1706 11.3299L37.173 11.3209L37.1836 11.2996L37.1914 11.2823L37.1995 11.27L37.2047 11.2569L37.2049 11.2441L37.2235 11.2104L37.2295 11.1943L37.2512 11.1614L37.2514 11.1486L37.2655 11.1379L37.2753 11.1196L37.2815 11.1084L37.2847 11.0964L37.3121 11.0602L37.3292 11.0326L37.3362 11.0184L37.3449 10.9981L37.353 10.9858L37.3641 10.9743L37.3742 10.9609L37.3798 10.9398L37.3928 10.9272L37.4132 10.9053L37.422 10.9206Z" fill="white"/>
<path d="M58.5 25C58.5 37.8943 45.8328 48.5 30 48.5C14.1672 48.5 1.5 37.8943 1.5 25C1.5 12.1057 14.1672 1.5 30 1.5C45.8328 1.5 58.5 12.1057 58.5 25Z" stroke="white"/>
<path d="M40.0722 47L37.6454 37.394L36.9316 34.1206C36.9316 34.1206 36.4037 32.2181 36.9316 31.1745C37.5358 29.98 38.8256 30.0574 39.8937 29.1777C41.0391 28.2343 42.5346 26.4934 42.5346 26.4934L44.7116 24.3657L50.1719 19.9138L50.6715 17.6878L51.6351 13.9234L52.099 12.3521C52.099 12.3521 51.8394 12.1333 51.6351 12.0575C51.2862 11.9281 50.6715 12.0575 50.6715 12.0575C50.6715 12.0575 49.9703 12.5378 49.6365 12.9413C49.1031 13.5863 48.8906 14.0661 48.8157 14.8727C48.7932 15.1147 48.8157 15.4946 48.8157 15.4946C48.8157 15.4946 48.3455 15.9597 48.1376 16.313C47.8485 16.8044 47.7094 17.6878 47.7094 17.6878L47.2811 18.4735C47.2811 18.4735 46.4075 18.7207 45.8893 18.9645C45.2563 19.2622 44.3904 19.9138 44.3904 19.9138C44.3904 19.9138 43.5339 19.9465 43.0343 20.4375C42.5346 20.9286 43.9978 18.0807 43.9978 18.0807C43.9978 18.0807 44.3048 17.2155 43.9978 16.804C43.7548 16.4781 43.0343 16.313 43.0343 16.313C43.0343 16.313 42.1129 16.0987 41.6067 16.313C40.7683 16.668 40.0722 18.4735 40.0722 18.4735L39.2156 19.9138L36.6461 21.8779C36.6461 21.8779 34.4936 22.9179 33.3628 23.8747C32.4539 24.6437 31.9907 25.1426 31.3286 26.1006C30.6709 27.0523 30.7028 27.5945 30.4007 28.6866C29.9963 30.1488 30.0081 32.582 30.0081 32.582C30.0081 32.582 29.9898 33.52 30.0081 34.1206C30.0528 35.5841 30.3241 36.3899 30.4007 37.8523C30.4769 39.308 30.4007 41.584 30.4007 41.584C30.4007 41.584 30.317 42.9799 30.2223 43.679C29.9775 45.4859 30.4007 48 30.4007 48" stroke="white" stroke-width="0.6"/>
<path d="M39.2671 25.9012L39.5166 24.9928C39.5166 24.9928 39.6536 24.4363 39.8374 24.1169C40.148 23.577 41.0136 22.9814 41.0136 22.9814L42.1899 21.846C42.1899 21.846 42.5475 21.5207 42.6889 21.262C42.8422 20.9814 42.9027 20.4834 42.9027 20.4834" stroke="white" stroke-width="0.6"/>
<path d="M41.1441 17.6761C41.2207 17.3108 41.6133 16.8244 41.6133 16.8244C41.6133 16.8244 41.8247 16.5979 42.0104 16.5296C42.2456 16.4432 42.6602 16.5296 42.6602 16.5296C42.6602 16.5296 43.128 16.5655 43.3822 16.6934C43.5574 16.7816 43.7793 16.9882 43.7793 16.9882C43.7793 16.9882 43.9229 17.2596 43.9598 17.4468C44.0886 18.1002 43.1656 18.9863 43.1656 18.9863H42.8407C42.8407 18.9863 42.324 18.8738 42.0104 18.757C41.6545 18.6244 41.1441 18.3312 41.1441 18.3312C41.1441 18.3312 41.0913 17.9274 41.1441 17.6761Z" stroke="white" stroke-width="0.3"/>
<path d="M20.027 47L22.4537 37.394L23.1675 34.1206C23.1675 34.1206 23.6954 32.2181 23.1675 31.1745C22.5633 29.98 21.2736 30.0574 20.2054 29.1777C19.06 28.2343 17.5645 26.4934 17.5645 26.4934L15.3875 24.3657L9.92726 19.9138L9.42763 17.6878L8.46406 13.9234L8.00011 12.3521C8.00011 12.3521 8.25976 12.1333 8.46406 12.0575C8.81292 11.9281 9.42763 12.0575 9.42763 12.0575C9.42763 12.0575 10.1288 12.5378 10.4626 12.9413C10.996 13.5863 11.2085 14.0661 11.2834 14.8727C11.3059 15.1147 11.2834 15.4946 11.2834 15.4946C11.2834 15.4946 11.7537 15.9597 11.9615 16.313C12.2506 16.8044 12.3897 17.6878 12.3897 17.6878L12.818 18.4735C12.818 18.4735 13.6916 18.7207 14.2098 18.9645C14.8428 19.2622 15.7087 19.9138 15.7087 19.9138C15.7087 19.9138 16.5652 19.9465 17.0649 20.4375C17.5645 20.9286 16.1013 18.0807 16.1013 18.0807C16.1013 18.0807 15.7944 17.2155 16.1013 16.804C16.3444 16.4781 17.0649 16.313 17.0649 16.313C17.0649 16.313 17.9862 16.0987 18.4924 16.313C19.3308 16.668 20.027 18.4735 20.027 18.4735L20.8835 19.9138L23.453 21.8779C23.453 21.8779 25.6055 22.9179 26.7363 23.8747C27.6453 24.6437 28.1084 25.1426 28.7705 26.1006C29.4282 27.0523 29.3963 27.5945 29.6984 28.6866C30.1028 30.1488 30.091 32.582 30.091 32.582C30.091 32.582 30.1093 33.52 30.091 34.1206C30.0463 35.5841 29.775 36.3899 29.6984 37.8523C29.6222 39.308 29.6984 41.584 29.6984 41.584C29.6984 41.584 29.7821 42.9799 29.8768 43.679C30.1216 45.4859 29.6984 48 29.6984 48" stroke="white" stroke-width="0.6"/>
<path d="M20.8315 25.9012L20.582 24.9928C20.582 24.9928 20.445 24.4363 20.2612 24.1169C19.9507 23.577 19.085 22.9814 19.085 22.9814L17.9088 21.846C17.9088 21.846 17.5511 21.5207 17.4098 21.262C17.2564 20.9814 17.1603 20.4834 17.1603 20.4834" stroke="white" stroke-width="0.6"/>
<path d="M16.4117 17.2754C16.5543 16.919 16.9107 16.7764 16.9107 16.7764C16.9107 16.7764 17.2829 16.601 17.4454 16.5308C17.6512 16.4419 17.7747 16.3841 17.988 16.42C18.1998 16.4557 18.4618 16.6993 18.4618 16.6993C18.4618 16.6993 18.6916 16.8662 18.8093 17.0025C19.0456 17.2762 19.1596 17.6532 19.1919 17.8457C19.3046 18.5179 18.2295 18.915 18.2295 18.915L17.6236 19.1646C17.6236 19.1646 17.4454 19.0576 17.2315 18.8438C16.9911 18.6033 16.7325 18.1309 16.7325 18.1309C16.7325 18.1309 16.3142 17.5193 16.4117 17.2754Z" stroke="white" stroke-width="0.3"/>
</svg>
