<svg width="24" height="16" viewBox="0 0 24 16" fill="none" xmlns="http://www.w3.org/2000/svg">
<path fill-rule="evenodd" clip-rule="evenodd" d="M18.384 15.8233C18.706 16.0057 19.121 16.0513 19.491 15.9393C19.8609 15.8265 20.1329 15.5737 20.2149 15.2673C21.0839 12.0001 23.1919 3.73052 23.9829 0.758519C24.0429 0.534519 23.9429 0.301719 23.7229 0.152119C23.5029 0.00251863 23.1979 -0.0406815 22.9259 0.0401186C18.733 1.28172 5.82027 5.15772 0.542386 6.72013C0.207393 6.81933 -0.0106019 7.07693 0.000397845 7.35933C0.0123976 7.64253 0.250392 7.88813 0.593384 7.97053C2.96033 8.53693 6.06726 9.32493 6.06726 9.32493C6.06726 9.32493 7.51923 12.8329 8.27621 14.6169C8.37121 14.8409 8.5902 15.0169 8.8792 15.0777C9.16719 15.1377 9.47518 15.0745 9.69018 14.9121C10.9061 13.9937 12.7861 12.5737 12.7861 12.5737C12.7861 12.5737 16.358 14.6689 18.384 15.8233ZM7.37423 8.88173L9.05319 13.3121L9.42618 10.5065C9.42618 10.5065 15.913 5.82573 19.611 3.15772C19.719 3.07932 19.7339 2.94812 19.644 2.85612C19.555 2.76412 19.391 2.74252 19.268 2.80492C14.9821 4.99452 7.37423 8.88173 7.37423 8.88173Z" fill="white"/>
</svg>
