<svg width="50" height="50" viewBox="0 0 50 50" fill="none" xmlns="http://www.w3.org/2000/svg">
<rect x="0.5" y="0.5" width="49" height="49" rx="24.5" fill="#55ACE3"/>
<path d="M37.9851 18.7523C37.1276 19.1198 36.1476 19.3648 35.1676 19.4873C36.1476 18.8748 37.0051 17.8948 37.3726 16.7923C36.3926 17.4048 35.4126 17.7723 34.1876 18.0173C33.3301 17.0373 31.9826 16.4248 30.6351 16.4248C27.9401 16.4248 25.7351 18.6298 25.7351 21.3248C25.7351 21.6923 25.7351 22.0598 25.8576 22.4273C21.8151 22.1823 18.1401 20.2223 15.6901 17.2823C15.3226 18.0173 15.0776 18.8748 15.0776 19.7323C15.0776 21.4473 15.9351 22.9173 17.2826 23.7748C16.4251 23.7748 15.6901 23.5298 15.0776 23.1623C15.0776 25.4898 16.7926 27.5723 18.9976 27.9398C18.6301 28.0623 18.1401 28.0623 17.6501 28.0623C17.2826 28.0623 17.0376 28.0623 16.6701 27.9398C17.2826 29.8998 19.1201 31.3698 21.3251 31.3698C19.6101 32.7173 17.5276 33.4523 15.2001 33.4523C14.8326 33.4523 14.4651 33.4523 13.9751 33.3298C16.1801 34.6773 18.7526 35.5348 21.5701 35.5348C30.6351 35.5348 35.5351 28.0623 35.5351 21.5698V20.9573C36.5151 20.5898 37.3726 19.7323 37.9851 18.7523Z" fill="white"/>
</svg>
