<svg width="50" height="50" viewBox="0 0 50 50" fill="none" xmlns="http://www.w3.org/2000/svg">
<rect x="0.5" y="0.5" width="49" height="49" rx="24.5" fill="#0077FF"/>
<path d="M26.2034 33.5748C16.9956 33.5748 11.7436 27.1371 11.5248 16.4248H16.1371C16.2886 24.2874 19.6889 27.6178 22.3822 28.3045V16.4248H26.7252V23.2058C29.3848 22.914 32.1792 19.8239 33.1218 16.4248H37.4648C37.1096 18.1877 36.4015 19.8568 35.3848 21.3279C34.3682 22.7989 33.0648 24.0402 31.5563 24.9741C33.2402 25.8274 34.7275 27.0351 35.9201 28.5177C37.1126 30.0002 37.9833 31.7239 38.4748 33.5748H33.6941C33.253 31.9671 32.3564 30.528 31.1167 29.4378C29.877 28.3475 28.3493 27.6547 26.7252 27.4461V33.5748H26.2034Z" fill="white"/>
</svg>
