<svg width="24" height="16" viewBox="0 0 24 16" fill="none" xmlns="http://www.w3.org/2000/svg">
<path d="M13.1615 15.9929C13.7704 15.9929 14.0194 15.5289 14.0124 14.9472C13.9814 12.7564 14.7264 11.577 16.0713 13.1141C17.5593 14.8147 17.8673 15.9929 19.6742 15.9929H22.874C23.682 15.9929 24 15.6958 24 15.2295C24 14.2432 22.5791 12.5027 21.3751 11.225C19.6892 9.43645 19.6102 9.39416 21.0621 7.24105C22.863 4.56794 25.2189 1.14284 23.135 1.14284H19.1542C18.3822 1.14284 18.3262 1.63998 18.0512 2.38054C17.0563 5.06279 15.1654 8.53703 14.4474 8.00561C13.6964 7.45133 14.0404 5.25593 14.0974 1.99312C14.1124 1.13141 14.1084 0.540564 12.9565 0.234283C12.3275 0.0685704 11.7155 0 11.1475 0C8.87463 0 7.3067 1.08913 8.19766 1.27884C9.76859 1.61369 9.6176 5.49821 9.25161 7.17591C8.61364 10.097 6.21574 4.86279 5.21678 2.25597C4.97579 1.62969 4.9018 1.14284 4.04183 1.14284H0.786967C0.294988 1.14284 0 1.3257 0 1.73255C0 2.42054 2.95988 9.41245 5.78576 12.8981C8.54164 16.2981 11.2655 15.9929 13.1615 15.9929Z" fill="white"/>
</svg>
